<?xml version="1.0" encoding="utf-8"?>
<!-- Generator: Adobe Illustrator 15.0.0, SVG Export Plug-In . SVG Version: 6.00 Build 0)  -->
<!DOCTYPE svg PUBLIC "-//W3C//DTD SVG 1.1//EN" "http://www.w3.org/Graphics/SVG/1.1/DTD/svg11.dtd">
<svg version="1.1" id="Layer_1" xmlns="http://www.w3.org/2000/svg" xmlns:xlink="http://www.w3.org/1999/xlink" x="0px" y="0px"
	 width="252.708px" height="72.225px" viewBox="0 0 252.708 72.225" enable-background="new 0 0 252.708 72.225"
	 xml:space="preserve">
<g>
	<path fill="#FFFFFF" d="M165.146,50.389c-2.406-0.002-4.811,0.016-7.217-0.008c-3.149-0.029-4.302-1.762-3.292-4.749
		c2.128-6.294,4.162-12.616,6.313-18.901c1.234-3.61,3.223-4.92,7.081-4.924c2.577-0.001,5.154-0.03,7.731,0.018
		c0.969,0.017,1.446-0.3,1.737-1.268c0.728-2.418,1.614-4.788,2.387-7.194c0.329-1.025,0.976-1.242,1.885-0.913
		c1.978,0.712,3.942,1.462,5.916,2.187c0.899,0.33,1.118,0.842,0.798,1.794c-3.216,9.587-6.389,19.188-9.574,28.784
		c-1.215,3.658-3.309,5.166-7.192,5.175C169.528,50.394,167.336,50.39,165.146,50.389 M166.898,44.965
		c2.211-0.01,2.499-0.157,3.199-2.195c1.515-4.412,2.976-8.839,4.456-13.262c0.769-2.291,0.768-2.292-1.696-2.283
		c-0.301,0.001-0.602-0.002-0.901,0.014c-1.151,0.062-1.919,0.582-2.236,1.75c-0.291,1.074-0.661,2.125-1.013,3.18
		c-1.235,3.692-2.485,7.38-3.714,11.074c-0.444,1.334-0.177,1.681,1.262,1.72C166.469,44.968,166.684,44.963,166.898,44.965"/>
	<path fill="#FFFFFF" d="M85.477,50.386c-2.491,0-4.982,0.021-7.473-0.005c-2.616-0.028-3.932-1.663-3.141-4.15
		c1.814-5.715,3.734-11.396,5.659-17.075c0.479-1.415,0.79-2.89,1.547-4.214c1.216-2.121,3.184-3.041,5.455-3.094
		c4.979-0.118,9.962-0.059,14.945-0.029c2.659,0.016,3.956,1.812,3.137,4.299c-2.172,6.594-4.35,13.185-6.561,19.767
		c-0.952,2.832-3.338,4.488-6.353,4.503c-2.404,0.011-4.811,0.002-7.215,0.002V50.386z M87.352,44.96
		c2.177-0.001,2.527-0.251,3.232-2.347c0.286-0.852,0.546-1.713,0.83-2.567c1.255-3.78,2.519-7.557,3.768-11.337
		c0.164-0.498,0.273-1.011-0.348-1.337c-1.595-0.835-4.116,0.049-4.698,1.738c-0.992,2.875-1.899,5.776-2.858,8.663
		c-0.634,1.91-1.312,3.804-1.94,5.715c-0.32,0.977,0.07,1.486,1.113,1.473C86.751,44.958,87.051,44.96,87.352,44.96"/>
	<path fill="#FFFFFF" d="M252.266,29.716c-0.19,1.152-0.612,2.126-1.196,3.037c-1.925,3.005-4.573,5.325-7.283,7.567
		c-4.571,3.782-9.557,6.962-14.714,9.883c-0.148,0.085-0.294,0.177-0.452,0.245c-0.313,0.138-0.678,0.338-0.931-0.024
		c-0.248-0.354,0.019-0.668,0.286-0.885c1.037-0.841,1.963-1.784,2.808-2.817c2.944-3.6,4.606-7.673,4.068-12.351
		c-0.497-4.336-2.461-8.071-5.44-11.267c-4.487-4.816-10.049-8.093-15.825-11.089c-6.892-3.572-14.273-5.849-21.596-8.284
		c-2.438-0.812-4.956-1.383-7.438-2.063c-0.331-0.091-0.671-0.156-0.992-0.271c-0.358-0.128-0.834-0.266-0.696-0.757
		c0.135-0.483,0.61-0.388,0.987-0.306c1.929,0.416,3.864,0.806,5.779,1.278c4.993,1.23,9.995,2.421,14.956,3.769
		c11.075,3.008,21.868,6.815,32.165,11.903c4.805,2.375,9.593,4.841,13.395,8.764C251.165,27.099,252.008,28.277,252.266,29.716"/>
	<path fill="#FFFFFF" d="M37.063,50.39c-2.664,0-5.328,0.015-7.99-0.005c-2.745-0.021-4.492-1.8-4.499-4.531
		c-0.002-1.301,0.31-2.523,0.728-3.757c2.088-6.168,4.154-12.344,6.14-18.545c0.409-1.278,0.995-1.833,2.364-1.772
		c2.1,0.094,4.208,0.007,6.312,0.035c1.235,0.017,1.423,0.337,1.025,1.521c-2.226,6.617-4.45,13.234-6.669,19.854
		c-0.463,1.382-0.232,1.727,1.196,1.766c1.116,0.031,2.234-0.005,3.351,0.01c0.696,0.009,1.008-0.262,0.67-0.931
		c-0.326-0.646-0.165-1.22,0.046-1.852c2.173-6.454,4.335-12.913,6.471-19.38c0.248-0.747,0.688-1.004,1.425-1
		c2.319,0.017,4.64-0.013,6.958,0.014c1.183,0.013,1.437,0.402,1.058,1.546c-2.78,8.377-5.589,16.745-8.333,25.135
		c-0.451,1.38-1.098,2.016-2.654,1.931C42.137,50.289,39.597,50.39,37.063,50.39"/>
	<path fill="#FFFFFF" d="M137.679,50.389c-2.534-0.002-5.068,0.017-7.603-0.009c-2.183-0.021-3.559-1.518-3.043-3.614
		c0.903-3.659,2.03-7.279,3.664-10.681c1.205-2.506,3.724-3.029,6.23-3.144c2.572-0.117,5.154-0.065,7.729-0.011
		c1.049,0.021,1.585-0.412,1.846-1.377c0.212-0.785,0.517-1.544,0.757-2.322c0.521-1.686,0.308-1.992-1.442-1.999
		c-3.093-0.011-6.184-0.003-9.276-0.002c-0.386,0-0.775,0.029-1.158-0.007c-0.525-0.046-1.247,0.235-1.478-0.431
		c-0.205-0.589,0.484-0.828,0.83-1.174c0.515-0.515,1.154-0.931,1.582-1.504c1.521-2.043,3.53-2.464,5.977-2.352
		c3.986,0.182,7.986,0.038,11.979,0.052c3.255,0.013,4.488,1.528,3.508,4.585c-2.095,6.524-4.261,13.029-6.499,19.506
		c-1.032,2.987-3.365,4.472-6.517,4.484c-0.086,0.001-0.173,0.001-0.258,0.001C142.23,50.39,139.955,50.39,137.679,50.389
		 M140.469,44.965c0.386,0,0.771-0.007,1.157,0.001c0.903,0.017,1.979,0.223,1.132-1.313c-0.227-0.411-0.039-0.919,0.129-1.371
		c0.342-0.922,0.692-1.841,0.994-2.775c0.92-2.854,0.912-2.84-2.133-2.71c-1.25,0.054-2.121,0.519-2.487,1.792
		c-0.32,1.109-0.717,2.195-1.077,3.292C137.171,44.965,137.171,44.966,140.469,44.965"/>
	<path fill="#FFFFFF" d="M192.264,50.39c-2.362-0.001-4.723,0.009-7.086-0.004c-2.94-0.015-4.204-1.771-3.273-4.588
		c1.815-5.49,3.648-10.973,5.484-16.457c0.594-1.775,0.956-3.637,2.198-5.158c1.259-1.539,2.893-2.323,4.809-2.35
		c5.065-0.065,10.133-0.053,15.198-0.011c2.444,0.02,3.75,1.86,3.007,4.147c-0.979,3.011-1.948,6.028-3.026,9.006
		c-0.963,2.661-3.201,4.122-6.052,4.129c-2.748,0.007-5.498,0.038-8.243-0.023c-1.107-0.026-1.774,0.244-2.016,1.428
		c-0.188,0.914-0.616,1.778-0.903,2.676c-0.411,1.287-0.081,1.765,1.275,1.772c3.521,0.018,7.042-0.005,10.563,0.02
		c0.56,0.005,1.349-0.301,1.609,0.408c0.234,0.637-0.527,0.89-0.912,1.256c-1.058,1.002-2.154,1.963-3.196,2.982
		c-0.6,0.588-1.276,0.783-2.095,0.775C197.159,50.374,194.71,50.39,192.264,50.39 M196.61,35.495
		c0.771-0.047,1.417-0.046,2.051-0.132c0.768-0.107,1.389-0.486,1.651-1.256c0.618-1.821,1.218-3.648,1.807-5.479
		c0.135-0.419,0.147-0.853-0.259-1.17c-1.189-0.928-4.234-0.019-4.716,1.4c-0.535,1.58-1.109,3.147-1.618,4.736
		c-0.202,0.629-1.169,1.148-0.752,1.696C195.046,35.651,196.055,35.453,196.61,35.495"/>
	<path fill="#FFFFFF" d="M118.423,27.227c-3.346,0-6.434,0.008-9.52-0.008c-0.491-0.002-1.137,0.168-1.363-0.438
		c-0.212-0.564,0.451-0.742,0.722-1.096c0.053-0.067,0.133-0.113,0.181-0.182c2.235-3.217,5.309-4.105,9.132-3.764
		c3.451,0.309,6.951,0.071,10.43,0.066c1.232-0.002,2.261,0.371,3.008,1.417c0.667,0.934,0.742,1.882,0.241,2.901
		c-0.69,1.407-1.756,2.517-2.807,3.657c-4.387,4.757-8.742,9.546-13.104,14.329c-0.166,0.182-0.297,0.394-0.452,0.601
		c0.409,0.406,0.861,0.243,1.263,0.246c2.706,0.017,5.411-0.001,8.117,0.019c0.534,0.004,1.291-0.264,1.543,0.301
		c0.307,0.69-0.536,0.974-0.92,1.366c-0.992,1.006-2.089,1.908-3.085,2.912c-0.626,0.631-1.323,0.852-2.192,0.846
		c-4.938-0.021-9.877-0.038-14.815,0.007c-1.49,0.013-2.62-0.519-3.289-1.809c-0.669-1.288-0.267-2.525,0.568-3.6
		c0.842-1.081,1.726-2.134,2.664-3.132c4.372-4.66,8.77-9.295,13.155-13.943C118.039,27.775,118.147,27.597,118.423,27.227"/>
	<path fill="#FFFFFF" d="M10.041,50.39c-2.017-0.001-4.036,0.007-6.053-0.003c-2.859-0.015-4.145-1.67-3.281-4.349
		c1.614-5.012,3.288-10.005,4.947-15.002c1.917-5.767,3.854-11.527,5.762-17.298c0.605-1.831,0.683-1.923,2.616-1.925
		c2.189-0.002,4.379-0.017,6.567,0.006c1.372,0.015,1.471,0.21,1.034,1.525c-3.303,9.915-6.601,19.83-9.892,29.749
		c-0.5,1.505-0.242,1.859,1.334,1.867c2.833,0.014,5.666,0,8.499,0.011c0.41,0.002,0.933-0.113,1.108,0.413
		c0.144,0.434-0.27,0.678-0.523,0.958c-0.058,0.063-0.132,0.111-0.183,0.179c-2.386,3.189-5.513,4.536-9.491,3.887
		C11.69,50.28,10.856,50.39,10.041,50.39"/>
	<path fill="#FFFFFF" d="M71.889,21.809c2.662-0.001,5.324-0.006,7.985,0.003c0.373,0.002,0.842-0.094,1.02,0.352
		c0.176,0.443-0.223,0.691-0.498,0.952c-1.214,1.149-2.448,2.277-3.64,3.45c-0.5,0.494-1.064,0.669-1.74,0.665
		c-1.803-0.012-3.606-0.006-5.41,0c-2.195,0.007-2.402,0.125-3.12,2.23c-1.532,4.498-3.054,8.999-4.523,13.517
		c-0.579,1.775-0.372,1.98,1.549,1.986c2.877,0.007,5.753-0.007,8.629,0.01c0.488,0.002,1.169-0.228,1.386,0.36
		c0.21,0.567-0.447,0.865-0.797,1.2c-1.176,1.127-2.401,2.202-3.585,3.32c-0.482,0.455-1.045,0.538-1.662,0.537
		c-3.778-0.005-7.557,0.024-11.334-0.016c-2.486-0.025-4.202-1.881-4.271-4.37c-0.055-1.99,0.656-3.789,1.256-5.61
		c1.5-4.557,3.054-9.095,4.591-13.638c1.146-3.384,3.274-4.93,6.819-4.945C66.994,21.8,69.442,21.81,71.889,21.809"/>
	<path fill="#FFFFFF" d="M230.3,36.163c-0.341,3.451-1.888,6.487-4.269,9.157c-4.3,4.822-9.698,8.163-15.277,11.228
		c-10.187,5.596-20.933,9.897-31.974,13.497c-1.631,0.531-3.245,1.113-4.878,1.644c-0.45,0.146-1.092,0.579-1.34-0.104
		c-0.228-0.626,0.481-0.831,0.938-1.003c3.217-1.21,6.335-2.65,9.446-4.096c7.91-3.676,15.645-7.686,22.848-12.622
		c5.505-3.772,10.823-7.813,14.196-13.76c2.777-4.895,3.792-10.153,2.586-15.735c-0.066-0.304-0.162-0.611,0.147-0.813
		c0.398-0.26,0.75-0.028,1.056,0.209c1.199,0.928,2.131,2.114,3.084,3.271C228.828,29.415,230.325,33.376,230.3,36.163"/>
</g>
</svg>
