<?xml version="1.0" encoding="utf-8"?>
<!-- Generator: Adobe Illustrator 15.0.0, SVG Export Plug-In . SVG Version: 6.00 Build 0)  -->
<!DOCTYPE svg PUBLIC "-//W3C//DTD SVG 1.1//EN" "http://www.w3.org/Graphics/SVG/1.1/DTD/svg11.dtd">
<svg version="1.1" id="Layer_1" xmlns="http://www.w3.org/2000/svg" xmlns:xlink="http://www.w3.org/1999/xlink" x="0px" y="0px"
	 width="283.519px" height="82.47px" viewBox="0 0 283.519 82.47" enable-background="new 0 0 283.519 82.47" xml:space="preserve">
<g>
	<path fill="#E22226" d="M184.987,57.143c-2.682-0.002-5.361,0.018-8.042-0.009c-3.51-0.032-4.794-1.963-3.669-5.292
		c2.371-7.013,4.639-14.057,7.035-21.061c1.376-4.022,3.592-5.482,7.891-5.486c2.872-0.002,5.744-0.033,8.615,0.02
		c1.08,0.019,1.612-0.334,1.937-1.413c0.811-2.695,1.799-5.335,2.659-8.017c0.367-1.143,1.088-1.384,2.101-1.018
		c2.204,0.794,4.394,1.63,6.593,2.438c1.002,0.367,1.245,0.938,0.889,1.999c-3.583,10.684-7.119,21.382-10.669,32.075
		c-1.354,4.076-3.687,5.756-8.015,5.766C189.869,57.148,187.427,57.145,184.987,57.143 M186.939,51.099
		c2.463-0.011,2.784-0.175,3.564-2.446c1.688-4.915,3.315-9.849,4.966-14.778c0.856-2.553,0.855-2.554-1.891-2.544
		c-0.335,0.001-0.67-0.003-1.004,0.016c-1.283,0.069-2.139,0.648-2.492,1.95c-0.324,1.196-0.736,2.367-1.129,3.543
		c-1.376,4.114-2.77,8.223-4.139,12.34c-0.495,1.486-0.196,1.872,1.406,1.916C186.46,51.103,186.7,51.097,186.939,51.099"/>
	<path fill="#E22226" d="M96.209,57.14c-2.775,0-5.552,0.022-8.327-0.006c-2.915-0.031-4.381-1.853-3.5-4.624
		c2.021-6.368,4.161-12.699,6.306-19.027c0.533-1.576,0.88-3.22,1.724-4.695c1.354-2.363,3.548-3.389,6.078-3.448
		c5.549-0.131,11.102-0.065,16.653-0.032c2.963,0.018,4.408,2.02,3.496,4.791c-2.421,7.348-4.848,14.692-7.311,22.026
		c-1.061,3.156-3.72,5.002-7.079,5.018c-2.679,0.013-5.36,0.003-8.04,0.003V57.14z M98.299,51.094
		c2.426-0.001,2.816-0.28,3.602-2.615c0.318-0.949,0.608-1.909,0.925-2.861c1.398-4.211,2.807-8.419,4.198-12.632
		c0.183-0.555,0.305-1.127-0.388-1.49c-1.777-0.931-4.587,0.055-5.235,1.938c-1.105,3.203-2.116,6.437-3.185,9.653
		c-0.707,2.127-1.462,4.239-2.162,6.369c-0.356,1.088,0.078,1.656,1.24,1.641C97.629,51.09,97.964,51.094,98.299,51.094"/>
	<path fill="#E22226" d="M282.067,34.107c-0.212,1.284-0.683,2.369-1.333,3.384c-2.145,3.349-5.096,5.934-8.116,8.432
		c-5.094,4.214-10.649,7.758-16.396,11.013c-0.166,0.095-0.328,0.196-0.504,0.272c-0.35,0.153-0.756,0.377-1.037-0.027
		c-0.276-0.395,0.021-0.744,0.318-0.985c1.156-0.938,2.188-1.988,3.129-3.14c3.281-4.012,5.133-8.55,4.533-13.762
		c-0.554-4.832-2.742-8.994-6.063-12.555c-5-5.367-11.197-9.019-17.634-12.356c-7.68-3.98-15.906-6.518-24.065-9.231
		c-2.717-0.904-5.522-1.541-8.289-2.299c-0.368-0.102-0.747-0.174-1.105-0.302c-0.399-0.143-0.929-0.296-0.775-0.844
		c0.149-0.538,0.68-0.432,1.1-0.341c2.149,0.463,4.307,0.897,6.44,1.424c5.563,1.371,11.138,2.698,16.666,4.199
		c12.341,3.352,24.368,7.595,35.843,13.264c5.354,2.646,10.689,5.395,14.926,9.766C280.839,31.19,281.78,32.503,282.067,34.107"/>
	<path fill="#E22226" d="M42.261,57.144c-2.969,0-5.937,0.017-8.903-0.005c-3.059-0.022-5.006-2.006-5.013-5.05
		c-0.003-1.449,0.345-2.812,0.811-4.186c2.327-6.874,4.629-13.755,6.842-20.666c0.456-1.424,1.108-2.042,2.635-1.975
		c2.34,0.104,4.689,0.008,7.033,0.039c1.377,0.019,1.586,0.376,1.143,1.694c-2.48,7.374-4.959,14.747-7.432,22.123
		c-0.516,1.54-0.259,1.925,1.333,1.968c1.243,0.035,2.489-0.006,3.733,0.011c0.776,0.01,1.123-0.291,0.747-1.037
		c-0.363-0.72-0.184-1.358,0.052-2.063c2.422-7.192,4.831-14.389,7.211-21.596c0.275-0.832,0.767-1.119,1.588-1.114
		c2.584,0.019,5.17-0.015,7.754,0.016c1.318,0.015,1.602,0.448,1.179,1.724c-3.098,9.335-6.229,18.659-9.285,28.008
		c-0.503,1.537-1.224,2.246-2.957,2.151C47.914,57.031,45.084,57.145,42.261,57.144"/>
	<path fill="#E22226" d="M154.379,57.143c-2.824-0.002-5.648,0.019-8.472-0.01c-2.433-0.023-3.966-1.69-3.391-4.027
		c1.006-4.077,2.262-8.111,4.083-11.901c1.343-2.793,4.149-3.376,6.942-3.503c2.866-0.131,5.743-0.073,8.613-0.013
		c1.169,0.023,1.766-0.459,2.057-1.534c0.236-0.875,0.575-1.721,0.844-2.588c0.581-1.879,0.343-2.22-1.607-2.228
		c-3.446-0.013-6.891-0.004-10.337-0.003c-0.431,0-0.864,0.032-1.291-0.008c-0.585-0.052-1.39,0.262-1.646-0.48
		c-0.229-0.657,0.54-0.923,0.925-1.309c0.574-0.574,1.286-1.037,1.763-1.677c1.694-2.276,3.935-2.746,6.66-2.621
		c4.442,0.203,8.899,0.043,13.349,0.059c3.627,0.015,5.001,1.702,3.908,5.109c-2.334,7.271-4.748,14.518-7.242,21.736
		c-1.15,3.329-3.75,4.983-7.262,4.997c-0.096,0.001-0.192,0.001-0.287,0.001C159.451,57.144,156.915,57.144,154.379,57.143
		 M157.489,51.099c0.43,0,0.859-0.007,1.289,0.002c1.007,0.018,2.205,0.248,1.262-1.464c-0.253-0.458-0.044-1.024,0.144-1.528
		c0.381-1.027,0.771-2.051,1.107-3.093c1.025-3.18,1.017-3.165-2.377-3.019c-1.393,0.061-2.363,0.578-2.771,1.997
		c-0.356,1.235-0.799,2.445-1.2,3.667C153.813,51.099,153.813,51.1,157.489,51.099"/>
	<path fill="#E22226" d="M215.205,57.144c-2.632-0.001-5.263,0.01-7.896-0.004c-3.277-0.017-4.685-1.974-3.647-5.112
		c2.022-6.118,4.065-12.227,6.111-18.337c0.661-1.979,1.065-4.053,2.449-5.748c1.402-1.715,3.224-2.589,5.358-2.618
		c5.645-0.072,11.291-0.06,16.936-0.013c2.724,0.022,4.179,2.073,3.351,4.621c-1.091,3.355-2.171,6.718-3.372,10.036
		c-1.073,2.965-3.567,4.593-6.744,4.6c-3.062,0.008-6.126,0.043-9.186-0.026c-1.233-0.028-1.977,0.272-2.246,1.592
		c-0.209,1.019-0.687,1.981-1.006,2.981c-0.459,1.435-0.091,1.967,1.421,1.975c3.923,0.021,7.847-0.005,11.77,0.022
		c0.624,0.005,1.503-0.336,1.794,0.454c0.261,0.71-0.588,0.992-1.017,1.399c-1.179,1.117-2.4,2.188-3.562,3.324
		c-0.668,0.654-1.423,0.872-2.334,0.863C220.659,57.126,217.931,57.144,215.205,57.144 M220.047,40.546
		c0.858-0.052,1.579-0.051,2.285-0.147c0.855-0.119,1.548-0.541,1.84-1.399c0.689-2.029,1.357-4.065,2.014-6.105
		c0.15-0.467,0.164-0.95-0.288-1.304c-1.325-1.034-4.719-0.021-5.255,1.561c-0.597,1.761-1.236,3.507-1.804,5.278
		c-0.225,0.701-1.303,1.279-0.838,1.89C218.305,40.72,219.429,40.5,220.047,40.546"/>
	<path fill="#E22226" d="M132.922,31.333c-3.729,0-7.169,0.009-10.608-0.01c-0.547-0.002-1.267,0.188-1.519-0.487
		c-0.236-0.629,0.503-0.827,0.805-1.222c0.059-0.074,0.148-0.126,0.201-0.202c2.491-3.585,5.916-4.574,10.176-4.194
		c3.846,0.344,7.746,0.079,11.622,0.073c1.373-0.002,2.52,0.413,3.352,1.579c0.743,1.041,0.827,2.098,0.27,3.232
		c-0.77,1.568-1.957,2.805-3.128,4.075c-4.888,5.301-9.741,10.637-14.602,15.966c-0.185,0.202-0.331,0.438-0.504,0.669
		c0.456,0.453,0.96,0.271,1.407,0.274c3.015,0.019,6.029-0.001,9.045,0.021c0.595,0.005,1.438-0.293,1.72,0.336
		c0.342,0.769-0.597,1.085-1.025,1.521c-1.105,1.121-2.328,2.127-3.438,3.245c-0.698,0.703-1.475,0.949-2.442,0.943
		c-5.503-0.023-11.007-0.043-16.51,0.007c-1.66,0.015-2.919-0.577-3.664-2.015c-0.746-1.436-0.298-2.814,0.633-4.012
		c0.938-1.204,1.923-2.378,2.968-3.49c4.872-5.192,9.772-10.357,14.659-15.536C132.494,31.944,132.614,31.746,132.922,31.333"/>
	<path fill="#E22226" d="M12.148,57.144c-2.248-0.001-4.497,0.008-6.745-0.003c-3.186-0.017-4.618-1.86-3.656-4.846
		C3.546,46.71,5.411,41.147,7.26,35.579c2.136-6.427,4.294-12.846,6.42-19.276c0.675-2.04,0.762-2.143,2.915-2.145
		c2.439-0.003,4.88-0.019,7.318,0.007c1.528,0.017,1.639,0.234,1.152,1.699C21.385,26.912,17.71,37.96,14.043,49.013
		c-0.557,1.677-0.27,2.072,1.486,2.081c3.157,0.015,6.313,0,9.471,0.012c0.457,0.002,1.04-0.126,1.234,0.46
		c0.16,0.483-0.301,0.756-0.583,1.067c-0.064,0.071-0.147,0.125-0.204,0.2c-2.659,3.554-6.144,5.054-10.576,4.331
		C13.986,57.021,13.058,57.145,12.148,57.144"/>
	<path fill="#E22226" d="M81.067,25.295c2.966-0.001,5.933-0.007,8.898,0.004c0.415,0.002,0.938-0.104,1.137,0.392
		c0.196,0.494-0.249,0.771-0.555,1.061c-1.353,1.28-2.728,2.537-4.056,3.845c-0.558,0.55-1.186,0.745-1.938,0.74
		c-2.009-0.014-4.019-0.007-6.028,0c-2.446,0.008-2.677,0.139-3.477,2.485c-1.707,5.013-3.403,10.028-5.041,15.062
		c-0.645,1.978-0.414,2.207,1.727,2.213c3.206,0.008,6.411-0.008,9.616,0.011c0.544,0.003,1.303-0.253,1.544,0.401
		c0.234,0.633-0.498,0.965-0.888,1.338c-1.311,1.256-2.676,2.454-3.995,3.7c-0.537,0.507-1.164,0.6-1.852,0.599
		c-4.21-0.006-8.421,0.026-12.63-0.018c-2.771-0.028-4.683-2.096-4.759-4.87c-0.061-2.218,0.731-4.223,1.4-6.252
		c1.672-5.077,3.402-10.134,5.116-15.197c1.276-3.771,3.648-5.493,7.599-5.51C75.613,25.286,78.341,25.296,81.067,25.295"/>
	<path fill="#E22226" d="M257.589,41.291c-0.379,3.845-2.104,7.228-4.756,10.204c-4.792,5.373-10.808,9.097-17.024,12.511
		c-11.352,6.235-23.326,11.029-35.629,15.04c-1.817,0.593-3.616,1.241-5.436,1.832c-0.502,0.162-1.217,0.646-1.493-0.115
		c-0.254-0.698,0.536-0.927,1.046-1.118c3.584-1.348,7.059-2.953,10.526-4.563c8.814-4.097,17.433-8.564,25.46-14.065
		c6.134-4.204,12.061-8.705,15.819-15.333c3.095-5.454,4.225-11.313,2.881-17.534c-0.074-0.339-0.181-0.681,0.164-0.905
		c0.444-0.29,0.836-0.031,1.177,0.233c1.336,1.034,2.374,2.355,3.437,3.646C255.949,33.771,257.617,38.185,257.589,41.291"/>
</g>
</svg>
