<?xml version="1.0" encoding="utf-8"?>
<!-- Generator: Adobe Illustrator 27.3.1, SVG Export Plug-In . SVG Version: 6.00 Build 0)  -->
<svg version="1.1" id="Layer_1" xmlns="http://www.w3.org/2000/svg" xmlns:xlink="http://www.w3.org/1999/xlink" x="0px" y="0px"
	 viewBox="0 0 600 600" style="enable-background:new 0 0 600 600;" xml:space="preserve">
<style type="text/css">
	.st0{fill:#010101;stroke:#FFFFFF;stroke-width:3;stroke-miterlimit:9.9999;}
	.st1{fill:#FFFFFF;stroke:#010101;stroke-width:3;stroke-miterlimit:10;}
	.st2{fill:#010101;stroke:#FFFFFF;stroke-miterlimit:10;}
	.st3{fill:#010101;stroke:#FFFFFF;stroke-width:3;stroke-miterlimit:10;}
	.st4{fill:#FFFFFF;stroke:#010101;stroke-width:3;stroke-miterlimit:9.9999;}
</style>
<symbol  id="White_Pencil" viewBox="-352.2 -28.4 704.5 56.8">
	<rect x="-265.6" y="-25.8" class="st0" width="570.1" height="51.6"/>
	<polygon class="st1" points="349.3,0 304.5,25.8 304.5,-25.8 	"/>
	<polygon class="st2" points="349.3,0 338.3,6.3 338.3,-6.3 	"/>
	<path class="st3" d="M-299.1-25.8l-25.8,0c-14.3,0-25.8,11.6-25.8,25.8l0,0c0,14.3,11.6,25.8,25.8,25.8l25.8,0V-25.8z"/>
	<rect x="-299.1" y="-25.8" class="st4" width="33.5" height="51.6"/>
</symbol>
<g>
	
		<use xlink:href="#White_Pencil"  width="704.5" height="56.8" x="-352.2" y="-28.4" transform="matrix(-0.7066 -0.7066 -0.7091 0.7091 299.7931 295.6764)" style="overflow:visible;"/>
	
		<use xlink:href="#White_Pencil"  width="704.5" height="56.8" id="XMLID_00000018214825076085609640000007022160024030466717_" x="-352.2" y="-28.4" transform="matrix(0.7076 -0.7076 -0.7091 -0.7091 299.7926 295.6764)" style="overflow:visible;"/>
</g>
</svg>
