<?xml version="1.0" encoding="utf-8"?>
<!-- Generator: Adobe Illustrator 27.3.1, SVG Export Plug-In . SVG Version: 6.00 Build 0)  -->
<svg version="1.1" id="Layer_1" xmlns="http://www.w3.org/2000/svg" xmlns:xlink="http://www.w3.org/1999/xlink" x="0px" y="0px"
	 viewBox="0 0 800 300" style="enable-background:new 0 0 800 300;" xml:space="preserve">
<style type="text/css">
	.st0{fill:#FFFFFF;stroke:#010101;stroke-width:3;stroke-miterlimit:9.9999;}
	.st1{fill:#FFFFFF;stroke:#010101;stroke-width:3;stroke-miterlimit:10;}
	.st2{fill:#010101;stroke:#FFFFFF;stroke-miterlimit:10;}
	.st3{fill:#010101;stroke:#FFFFFF;stroke-width:3;stroke-miterlimit:9.9999;}
</style>
<symbol  id="White_Pencil_2" viewBox="-352.3 -28.4 704.5 56.8">
	<rect x="-265.7" y="-25.8" class="st0" width="570.1" height="51.6"/>
	<polygon class="st1" points="349.2,0 304.4,25.8 304.4,-25.8 	"/>
	<polygon class="st2" points="349.2,0 338.2,6.3 338.2,-6.3 	"/>
	<path class="st1" d="M-299.2-25.8H-325c-14.3,0-25.8,11.6-25.8,25.8l0,0c0,14.3,11.6,25.8,25.8,25.8h25.8V-25.8z"/>
	<rect x="-299.2" y="-25.8" class="st3" width="33.5" height="51.6"/>
</symbol>
<g>
	<g>
		<defs>
			<rect id="SVGID_1_" x="47.6" y="12.8" width="705" height="57"/>
		</defs>
		<clipPath id="SVGID_00000071520751704068597110000004386137848992552850_">
			<use xlink:href="#SVGID_1_"  style="overflow:visible;"/>
		</clipPath>
		<g style="clip-path:url(#SVGID_00000071520751704068597110000004386137848992552850_);">
			
				<use xlink:href="#White_Pencil_2"  width="704.5" height="56.8" x="-352.3" y="-28.4" transform="matrix(1.0007 0 0 -1.0028 400.0558 41.25)" style="overflow:visible;"/>
		</g>
	</g>
	<g>
		<defs>
			<rect id="SVGID_00000171713322829623583560000013444261829672309897_" x="48" y="230.3" width="704" height="57"/>
		</defs>
		<clipPath id="SVGID_00000079463812605509216260000005528158669473181854_">
			<use xlink:href="#SVGID_00000171713322829623583560000013444261829672309897_"  style="overflow:visible;"/>
		</clipPath>
		<g style="clip-path:url(#SVGID_00000079463812605509216260000005528158669473181854_);">
			
				<use xlink:href="#White_Pencil_2"  width="704.5" height="56.8" x="-352.3" y="-28.4" transform="matrix(-0.9993 0 0 1.0028 399.9506 258.75)" style="overflow:visible;"/>
		</g>
	</g>
</g>
</svg>
