<?xml version="1.0" encoding="utf-8"?>
<!-- Generator: Adobe Illustrator 12.0.0, SVG Export Plug-In . SVG Version: 6.00 Build 51448)  -->
<!DOCTYPE svg PUBLIC "-//W3C//DTD SVG 1.1//EN" "http://www.w3.org/Graphics/SVG/1.1/DTD/svg11.dtd" [
	<!ENTITY ns_svg "http://www.w3.org/2000/svg">
	<!ENTITY ns_xlink "http://www.w3.org/1999/xlink">
]>
<svg  version="1.1" id="Layer_1" xmlns="&ns_svg;" xmlns:xlink="&ns_xlink;" width="508.819" height="124.497"
	 viewBox="0 0 508.819 124.497" overflow="visible" enable-background="new 0 0 508.819 124.497" xml:space="preserve">
<g>
	<path fill="#7E8082" d="M14.045,123.466c-1.876,0.688-3.497,1.031-4.862,1.031c-1.424,0-2.729-0.463-3.918-1.39
		c-1.188-0.926-2.085-2.145-2.689-3.656c-0.604-1.511-0.905-3.216-0.905-5.117c0-2.832,0.652-5.195,1.957-7.09
		c1.306-1.895,3.322-2.842,6.05-2.842c1.256,0,2.649,0.208,4.181,0.625v2.906c-1.637-0.583-2.97-0.875-3.998-0.875
		c-1.626,0-2.851,0.73-3.674,2.189s-1.234,3.188-1.234,5.185c0,2.163,0.463,3.912,1.391,5.248c0.927,1.335,2.131,2.003,3.612,2.003
		c1.324,0,2.688-0.406,4.091-1.219V123.466z"/>
	<path fill="#7E8082" d="M45.321,124.497c-1.534,0-2.867-0.375-4-1.124c-1.133-0.75-2.03-1.93-2.693-3.541
		c-0.663-1.611-0.994-3.408-0.994-5.391c0-1.865,0.302-3.597,0.905-5.196s1.481-2.806,2.634-3.621s2.535-1.222,4.148-1.222
		c1.533,0,2.869,0.372,4.007,1.115c1.138,0.744,2.035,1.924,2.693,3.541s0.987,3.411,0.987,5.382c0,1.889-0.308,3.632-0.921,5.231
		c-0.613,1.6-1.491,2.803-2.634,3.612C48.312,124.093,46.934,124.497,45.321,124.497z M45.313,121.872
		c1.459,0,2.591-0.646,3.396-1.937c0.804-1.292,1.206-3.123,1.206-5.494c0-2.382-0.405-4.213-1.214-5.493
		c-0.81-1.28-1.938-1.92-3.388-1.92s-2.576,0.64-3.38,1.92c-0.805,1.28-1.206,3.111-1.206,5.493c0,2.371,0.401,4.202,1.206,5.494
		C42.737,121.227,43.864,121.872,45.313,121.872z"/>
	<path fill="#7E8082" d="M78.014,124.06v-19.219h2.938v3.6c0.592-1.12,1.349-2.073,2.271-2.858s1.99-1.179,3.205-1.179
		c0.701,0,1.313,0.136,1.837,0.408s0.997,0.656,1.422,1.152s0.805,1.322,1.141,2.477c0.593-1.155,1.347-2.122,2.262-2.9
		c0.914-0.778,1.959-1.167,3.136-1.167c1.146,0,2.18,0.425,3.099,1.276s1.379,2.322,1.379,4.413v13.999h-2.938v-13.453
		c0-1.276-0.225-2.145-0.675-2.605c-0.449-0.461-0.951-0.691-1.504-0.691c-0.692,0-1.411,0.259-2.157,0.777
		c-0.746,0.518-1.613,1.544-2.602,3.079v12.894h-2.938v-13.439c0-1.287-0.227-2.16-0.681-2.621c-0.453-0.46-0.966-0.69-1.538-0.69
		c-0.7,0-1.408,0.253-2.123,0.759s-1.58,1.538-2.596,3.097v12.894H78.014z"/>
	<path fill="#7E8082" d="M126.797,124.06v-19.219h2.938v3.6c0.592-1.12,1.349-2.073,2.271-2.858s1.99-1.179,3.205-1.179
		c0.701,0,1.313,0.136,1.837,0.408s0.997,0.656,1.422,1.152s0.805,1.322,1.141,2.477c0.593-1.155,1.347-2.122,2.261-2.9
		s1.96-1.167,3.136-1.167c1.146,0,2.18,0.425,3.1,1.276c0.919,0.851,1.379,2.322,1.379,4.413v13.999h-2.938v-13.453
		c0-1.276-0.226-2.145-0.675-2.605c-0.45-0.461-0.951-0.691-1.505-0.691c-0.691,0-1.41,0.259-2.156,0.777
		c-0.746,0.518-1.613,1.544-2.602,3.079v12.894h-2.938v-13.439c0-1.287-0.228-2.16-0.681-2.621c-0.454-0.46-0.967-0.69-1.538-0.69
		c-0.7,0-1.408,0.253-2.123,0.759s-1.58,1.538-2.596,3.097v12.894H126.797z"/>
	<path fill="#7E8082" d="M185.642,124.06v-3.594c-0.752,1.291-1.617,2.286-2.596,2.984c-0.979,0.698-1.998,1.047-3.056,1.047
		c-1.354,0-2.46-0.516-3.315-1.548s-1.283-2.468-1.283-4.308v-13.8h2.938v12.674c0,1.333,0.099,2.212,0.296,2.637
		s0.474,0.755,0.829,0.991c0.355,0.236,0.74,0.354,1.155,0.354c0.71,0,1.482-0.265,2.316-0.795s1.739-1.661,2.716-3.393v-12.469
		h2.938v19.219H185.642z"/>
	<path fill="#7E8082" d="M214.841,124.06v-19.219h2.938v3.59c0.741-1.284,1.604-2.276,2.589-2.977
		c0.983-0.701,2.005-1.051,3.062-1.051c1.365,0,2.473,0.517,3.323,1.55s1.275,2.464,1.275,4.294v13.812h-2.938v-12.687
		c0-1.335-0.099-2.215-0.296-2.64s-0.474-0.753-0.829-0.983s-0.735-0.346-1.14-0.346c-0.721,0-1.497,0.266-2.331,0.797
		c-0.834,0.532-1.74,1.666-2.717,3.402v12.457H214.841z"/>
	<path fill="#7E8082" d="M254.103,101.372v-3.469h2.938v3.469H254.103z M254.103,124.06v-19.219h2.938v19.219H254.103z"/>
	<path fill="#7E8082" d="M294.34,123.466c-1.876,0.688-3.496,1.031-4.861,1.031c-1.424,0-2.73-0.463-3.919-1.39
		c-1.188-0.926-2.085-2.145-2.688-3.656c-0.604-1.511-0.906-3.216-0.906-5.117c0-2.832,0.652-5.195,1.957-7.09
		c1.306-1.895,3.322-2.842,6.051-2.842c1.256,0,2.648,0.208,4.18,0.625v2.906c-1.637-0.583-2.969-0.875-3.998-0.875
		c-1.626,0-2.851,0.73-3.674,2.189s-1.234,3.188-1.234,5.185c0,2.163,0.463,3.912,1.391,5.248c0.927,1.335,2.131,2.003,3.612,2.003
		c1.324,0,2.688-0.406,4.091-1.219V123.466z"/>
	<path fill="#7E8082" d="M327.705,121.622c-0.886,0.953-1.758,1.67-2.619,2.152c-0.859,0.482-1.702,0.723-2.527,0.723
		c-1.157,0-2.233-0.448-3.229-1.346s-1.494-2.208-1.494-3.932c0-1.889,0.694-3.451,2.083-4.685c1.39-1.233,3.609-1.851,6.66-1.851
		h0.694v-2.315c0-0.919-0.106-1.588-0.317-2.006c-0.213-0.418-0.543-0.745-0.991-0.981c-0.448-0.235-1.006-0.354-1.671-0.354
		c-1.543,0-3.227,0.573-5.052,1.719v-2.906c1.999-0.958,3.882-1.438,5.649-1.438c0.965,0,1.852,0.18,2.66,0.54
		c0.809,0.36,1.453,0.926,1.936,1.699s0.724,2.014,0.724,3.724v8.705c0,0.967,0.062,1.619,0.188,1.955s0.303,0.593,0.53,0.77
		s0.491,0.265,0.792,0.265c0.125,0,0.31-0.023,0.552-0.07l0.219,1.938c-0.66,0.379-1.389,0.569-2.187,0.569
		c-0.531,0-1.044-0.206-1.536-0.617C328.276,123.468,327.922,122.716,327.705,121.622z M327.272,119.716v-4.965l-0.956-0.035
		c-1.57,0-2.887,0.354-3.949,1.062c-1.063,0.708-1.595,1.669-1.595,2.885c0,0.838,0.261,1.545,0.782,2.124s1.131,0.867,1.83,0.867
		c0.627,0,1.266-0.163,1.913-0.489C325.945,120.839,326.604,120.356,327.272,119.716z"/>
	<path fill="#7E8082" d="M363.642,124.06c-0.904,0.292-1.688,0.438-2.354,0.438c-1.451,0-2.604-0.498-3.457-1.494
		c-0.855-0.996-1.282-2.414-1.282-4.254v-11.283h-2.031v-2.625h2.031v-3.469l2.938-0.336v3.805h4.219v2.625h-4.219v10.641
		c0,1.344,0.218,2.307,0.655,2.89c0.438,0.583,1.133,0.875,2.086,0.875c0.387,0,0.858-0.073,1.415-0.219V124.06z"/>
	<path fill="#7E8082" d="M388.184,101.372v-3.469h2.938v3.469H388.184z M388.184,124.06v-19.219h2.938v19.219H388.184z"/>
	<path fill="#7E8082" d="M423.733,124.497c-1.534,0-2.866-0.375-3.999-1.124c-1.133-0.75-2.031-1.93-2.694-3.541
		c-0.663-1.611-0.994-3.408-0.994-5.391c0-1.865,0.302-3.597,0.905-5.196s1.481-2.806,2.635-3.621
		c1.152-0.814,2.535-1.222,4.147-1.222c1.533,0,2.869,0.372,4.007,1.115c1.138,0.744,2.035,1.924,2.693,3.541
		s0.987,3.411,0.987,5.382c0,1.889-0.308,3.632-0.921,5.231c-0.613,1.6-1.491,2.803-2.634,3.612
		C426.724,124.093,425.346,124.497,423.733,124.497z M423.727,121.872c1.459,0,2.59-0.646,3.395-1.937
		c0.804-1.292,1.206-3.123,1.206-5.494c0-2.382-0.405-4.213-1.214-5.493s-1.938-1.92-3.387-1.92c-1.45,0-2.577,0.64-3.381,1.92
		c-0.805,1.28-1.206,3.111-1.206,5.493c0,2.371,0.401,4.202,1.206,5.494C421.149,121.227,422.276,121.872,423.727,121.872z"/>
	<path fill="#7E8082" d="M456.427,124.06v-19.219h2.938v3.59c0.741-1.284,1.604-2.276,2.589-2.977
		c0.983-0.701,2.004-1.051,3.062-1.051c1.365,0,2.473,0.517,3.322,1.55c0.852,1.033,1.276,2.464,1.276,4.294v13.812h-2.938v-12.687
		c0-1.335-0.099-2.215-0.296-2.64s-0.475-0.753-0.829-0.983c-0.355-0.23-0.735-0.346-1.14-0.346c-0.721,0-1.498,0.266-2.332,0.797
		c-0.834,0.532-1.739,1.666-2.716,3.402v12.457H456.427z"/>
	<path fill="#7E8082" d="M495.063,123.372v-3.188c1.908,1.125,3.569,1.688,4.983,1.688c0.831,0,1.525-0.271,2.084-0.814
		c0.559-0.542,0.839-1.221,0.839-2.035c0-0.507-0.14-1.002-0.417-1.486s-0.918-0.973-1.92-1.469l-1.711-0.867
		c-1.32-0.648-2.283-1.404-2.889-2.266c-0.605-0.85-0.907-1.894-0.907-3.133c0-1.546,0.474-2.833,1.419-3.859
		c0.947-1.027,2.347-1.541,4.199-1.541c0.906,0,2.027,0.15,3.363,0.45l0.612,0.144v2.906c-1.65-0.583-2.966-0.875-3.946-0.875
		c-0.949,0-1.66,0.242-2.13,0.726s-0.705,1.056-0.705,1.716c0,0.519,0.159,0.985,0.478,1.398c0.309,0.425,0.865,0.843,1.672,1.256
		l1.417,0.708c1.9,0.956,3.108,1.899,3.626,2.832c0.518,0.933,0.776,1.947,0.776,3.045c0,1.051-0.24,2.024-0.721,2.921
		s-1.188,1.599-2.124,2.106s-1.979,0.761-3.127,0.761C498.599,124.497,496.975,124.122,495.063,123.372z"/>
	<path fill="#808284" stroke="#808284" stroke-width="0.25" stroke-linecap="round" stroke-linejoin="round" d="M241.799,28.369
		c0,0-11.733-15.617-18.223-5.203c0,0-3.92,3.516-14.129-2.113l5.228-13.964c10.209,5.626,16.399-3.386,16.399-3.386
		c6.49-10.41,18.221,5.203,18.221,5.203S238.257,4.804,241.799,28.369z"/>
	<path fill="#00245D" stroke="#00245D" stroke-width="0.25" d="M236.394,42.195l13.481-35.366c0,0-1.543-2.396,0.406-3.341
		c0,0,1.564-0.489,2.587,0.732c0,0,1.274,0.979-0.647,2.87L236.394,42.195z"/>
	<path fill="#00245D" d="M12.531,69.387c0.145,5.649,1.086,7.533,2.535,8.04c1.23,0.435,2.607,0.507,3.766,0.507
		c0.797,0,1.231,0.145,1.231,0.58c0,0.579-0.651,0.724-1.666,0.724c-4.708,0-7.604-0.217-8.981-0.217
		c-0.651,0-4.056,0.217-7.822,0.217C0.652,79.238,0,79.166,0,78.514c0-0.435,0.435-0.58,1.159-0.58c0.941,0,2.245-0.072,3.26-0.362
		c1.883-0.58,2.173-2.68,2.245-8.981l0.651-42.879c0-1.449,0.218-2.463,0.942-2.463c0.796,0,1.448,0.942,2.68,2.246
		c0.869,0.941,11.879,12.748,22.454,23.25c4.925,4.925,14.703,15.355,15.935,16.514h0.362l-0.725-32.521
		c-0.072-4.418-0.725-5.794-2.463-6.519c-1.086-0.435-2.824-0.435-3.839-0.435c-0.869,0-1.158-0.217-1.158-0.652
		c0-0.58,0.796-0.652,1.883-0.652c3.767,0,7.243,0.217,8.765,0.217c0.797,0,3.549-0.217,7.098-0.217
		c0.941,0,1.666,0.072,1.666,0.652c0,0.435-0.435,0.652-1.304,0.652c-0.725,0-1.304,0-2.173,0.217
		c-2.028,0.58-2.607,2.101-2.68,6.157l-0.797,45.705c0,1.593-0.29,2.245-0.941,2.245c-0.797,0-1.666-0.797-2.463-1.593
		c-4.563-4.346-13.835-13.834-21.367-21.295c-7.896-7.823-15.936-16.877-17.239-18.253h-0.217L12.531,69.387z"/>
	<path fill="#00245D" d="M67.939,55.915c0-10.503,7.389-24.12,26.728-24.12c16.08,0,26.075,8.909,26.075,23.033
		c0,14.125-10.285,25.207-26.727,25.207C75.473,80.035,67.939,66.852,67.939,55.915z M111.254,57.074
		c0-13.617-8.185-22.019-18.47-22.019c-7.099,0-15.429,3.766-15.429,18.977c0,12.675,7.243,22.671,19.268,22.671
		C101.113,76.703,111.254,74.602,111.254,57.074z"/>
	<path fill="#00245D" d="M137.546,63.737c-0.362,0-0.435,0.073-0.58,0.435l-3.404,8.257c-0.651,1.521-0.941,3.042-0.941,3.767
		c0,1.086,0.579,1.738,2.535,1.738h0.941c0.797,0,0.941,0.29,0.941,0.652c0,0.507-0.361,0.652-1.014,0.652
		c-2.101,0-5.07-0.217-7.099-0.217c-0.651,0-4.056,0.217-7.388,0.217c-0.797,0-1.159-0.145-1.159-0.652
		c0-0.362,0.218-0.652,0.725-0.652c0.579,0,1.304-0.072,1.884-0.072c2.896-0.435,3.983-2.318,5.287-5.433l16.659-38.751
		c0.725-1.738,1.231-2.462,1.883-2.462c0.942,0,1.231,0.579,1.884,1.956c1.521,3.404,12.168,28.61,16.225,37.954
		c2.463,5.577,4.273,6.374,5.433,6.591c0.941,0.145,1.666,0.217,2.39,0.217c0.58,0,0.869,0.217,0.869,0.652
		c0,0.507-0.362,0.652-2.752,0.652c-2.245,0-6.881,0-12.241-0.145c-1.159-0.072-1.883-0.072-1.883-0.507
		c0-0.362,0.145-0.58,0.797-0.652c0.435-0.072,0.869-0.652,0.579-1.376l-4.926-12.386c-0.145-0.362-0.361-0.435-0.651-0.435H137.546
		z M151.163,60.333c0.289,0,0.361-0.145,0.289-0.362l-6.012-15.646c-0.072-0.217-0.145-0.58-0.289-0.58
		c-0.218,0-0.29,0.362-0.362,0.58l-6.157,15.573c-0.145,0.29,0,0.435,0.218,0.435H151.163z"/>
	<path fill="#00245D" d="M213.598,52.728c0.145,0,0.362-0.073,0.362-0.435v-1.304c0-9.343-0.073-11.589-0.146-13.544
		c-0.145-2.101-0.725-2.752-2.752-3.332c-0.507-0.145-1.594-0.217-2.463-0.217c-0.725,0-1.087-0.217-1.087-0.652
		s0.435-0.58,1.377-0.58c3.404,0,7.895,0.145,9.561,0.145c1.521,0,5.723-0.145,8.185-0.145c0.941,0,1.377,0.145,1.377,0.58
		s-0.436,0.652-1.159,0.652c-0.507,0-1.087,0.073-1.884,0.217c-1.666,0.29-2.173,1.159-2.317,3.332
		c-0.145,1.956-0.145,3.694-0.145,13.038v10.865c0,5.65,0,10.502,0.289,13.183c0.218,1.738,0.58,2.897,2.535,3.187
		c0.869,0.145,2.245,0.217,3.26,0.217c0.651,0,1.014,0.362,1.014,0.652c0,0.435-0.507,0.652-1.304,0.652
		c-4.128,0-8.329-0.217-10.067-0.217c-1.449,0-5.939,0.217-8.402,0.217c-0.869,0-1.376-0.217-1.376-0.652
		c0-0.29,0.289-0.652,1.014-0.652c1.014,0,1.738-0.072,2.317-0.217c1.304-0.29,1.666-1.449,1.884-3.259
		c0.29-2.608,0.29-7.316,0.29-12.965v-4.708c0-0.217-0.218-0.362-0.362-0.362H189.55c-0.217,0-0.435,0.072-0.435,0.362v4.708
		c0,5.649,0.072,10.357,0.362,13.038c0.218,1.738,0.579,2.897,2.463,3.187c0.869,0.145,2.317,0.217,3.26,0.217
		c0.724,0,1.014,0.362,1.014,0.652c0,0.435-0.507,0.652-1.304,0.652c-4.129,0-8.547-0.217-10.357-0.217
		c-1.449,0-5.65,0.217-8.186,0.217c-0.797,0-1.231-0.217-1.231-0.652c0-0.29,0.218-0.652,1.015-0.652
		c0.941,0,1.666-0.072,2.245-0.217c1.304-0.29,1.666-1.449,1.884-3.259c0.289-2.608,0.289-7.46,0.289-13.11V50.482
		c0-9.344,0-11.082-0.072-13.038c-0.145-2.101-0.725-2.752-2.752-3.332c-0.508-0.145-1.594-0.217-2.535-0.217
		c-0.652,0-1.087-0.217-1.087-0.652s0.507-0.58,1.376-0.58c3.404,0,7.605,0.145,9.344,0.145c1.521,0,5.939-0.145,8.475-0.145
		c0.869,0,1.304,0.145,1.304,0.58s-0.362,0.652-1.159,0.652c-0.507,0-1.086,0.073-1.811,0.217c-1.738,0.29-2.245,1.159-2.39,3.332
		c-0.146,1.956-0.146,4.201-0.146,13.544v1.304c0,0.362,0.218,0.435,0.435,0.435H213.598z"/>
	<path fill="#00245D" d="M252.057,78.441c-1.014-0.435-1.231-0.724-1.231-2.101c0-3.332,0.29-7.17,0.362-8.185
		c0-0.941,0.29-1.593,0.797-1.593c0.579,0,0.651,0.579,0.651,1.014c0,0.797,0.218,2.101,0.58,3.187
		c1.376,4.563,6.156,6.084,10.141,6.084c5.504,0,8.836-3.477,8.836-7.823c0-2.68-0.651-5.36-6.301-8.692l-3.694-2.173
		c-7.533-4.418-9.996-8.547-9.996-13.979c0-7.533,7.243-12.386,16.08-12.386c4.129,0,7.388,0.58,9.054,1.014
		c0.579,0.145,0.869,0.362,0.869,0.797c0,0.797-0.217,2.535-0.217,7.388c0,1.304-0.29,1.956-0.797,1.956
		c-0.435,0-0.652-0.362-0.652-1.086c0-0.58-0.289-2.463-1.666-4.056c-0.941-1.159-2.97-2.897-7.098-2.897
		c-4.563,0-8.691,2.39-8.691,6.591c0,2.752,1.014,4.925,6.735,8.112l2.607,1.449c8.402,4.636,11.01,9.344,11.01,14.921
		c0,4.563-1.738,8.257-6.374,11.517c-3.042,2.173-7.243,2.535-10.647,2.535C258.721,80.035,254.81,79.672,252.057,78.441z"/>
	<path fill="#00245D" d="M321.878,69.387c0.146,5.649,1.087,7.533,2.535,8.04c1.231,0.435,2.607,0.507,3.767,0.507
		c0.797,0,1.231,0.145,1.231,0.58c0,0.579-0.651,0.724-1.666,0.724c-4.708,0-7.605-0.217-8.981-0.217
		c-0.651,0-4.056,0.217-7.822,0.217c-0.941,0-1.594-0.072-1.594-0.724c0-0.435,0.435-0.58,1.159-0.58
		c0.941,0,2.245-0.072,3.259-0.362c1.884-0.58,2.173-2.68,2.246-8.981l0.651-42.879c0-1.449,0.218-2.463,0.941-2.463
		c0.797,0,1.449,0.942,2.681,2.246c0.869,0.941,11.879,12.748,22.453,23.25c4.926,4.925,14.704,15.355,15.936,16.514h0.362
		l-0.725-32.521c-0.072-4.418-0.725-5.794-2.463-6.519c-1.086-0.435-2.825-0.435-3.839-0.435c-0.869,0-1.159-0.217-1.159-0.652
		c0-0.58,0.797-0.652,1.884-0.652c3.767,0,7.243,0.217,8.764,0.217c0.797,0,3.55-0.217,7.099-0.217c0.941,0,1.666,0.072,1.666,0.652
		c0,0.435-0.435,0.652-1.304,0.652c-0.725,0-1.304,0-2.173,0.217c-2.028,0.58-2.607,2.101-2.681,6.157l-0.796,45.705
		c0,1.593-0.29,2.245-0.942,2.245c-0.797,0-1.666-0.797-2.462-1.593c-4.563-4.346-13.835-13.834-21.368-21.295
		c-7.895-7.823-15.935-16.877-17.238-18.253h-0.217L321.878,69.387z"/>
	<path fill="#00245D" d="M387.717,63.737c-0.362,0-0.435,0.073-0.579,0.435l-3.404,8.257c-0.652,1.521-0.942,3.042-0.942,3.767
		c0,1.086,0.58,1.738,2.535,1.738h0.942c0.796,0,0.941,0.29,0.941,0.652c0,0.507-0.362,0.652-1.015,0.652
		c-2.101,0-5.07-0.217-7.098-0.217c-0.652,0-4.057,0.217-7.389,0.217c-0.797,0-1.158-0.145-1.158-0.652
		c0-0.362,0.217-0.652,0.724-0.652c0.58,0,1.304-0.072,1.884-0.072c2.897-0.435,3.983-2.318,5.287-5.433l16.659-38.751
		c0.725-1.738,1.231-2.462,1.884-2.462c0.941,0,1.231,0.579,1.883,1.956c1.521,3.404,12.169,28.61,16.225,37.954
		c2.463,5.577,4.273,6.374,5.433,6.591c0.941,0.145,1.666,0.217,2.39,0.217c0.58,0,0.87,0.217,0.87,0.652
		c0,0.507-0.362,0.652-2.753,0.652c-2.245,0-6.881,0-12.241-0.145c-1.158-0.072-1.883-0.072-1.883-0.507
		c0-0.362,0.145-0.58,0.797-0.652c0.435-0.072,0.869-0.652,0.579-1.376l-4.925-12.386c-0.146-0.362-0.362-0.435-0.652-0.435H387.717
		z M401.334,60.333c0.29,0,0.362-0.145,0.29-0.362l-6.013-15.646c-0.072-0.217-0.145-0.58-0.289-0.58
		c-0.218,0-0.29,0.362-0.362,0.58l-6.157,15.573c-0.145,0.29,0,0.435,0.218,0.435H401.334z"/>
	<path fill="#00245D" d="M420.382,38.676c-1.448-3.404-2.39-3.984-4.708-4.563c-0.941-0.217-1.955-0.217-2.462-0.217
		c-0.58,0-0.725-0.29-0.725-0.652c0-0.507,0.651-0.58,1.594-0.58c3.404,0,7.025,0.145,9.271,0.145c1.594,0,4.926-0.145,8.112-0.145
		c0.797,0,1.521,0.145,1.521,0.58s-0.435,0.652-1.014,0.652c-1.015,0-1.956,0.073-2.463,0.435c-0.435,0.29-0.652,0.652-0.652,1.231
		c0,0.797,0.58,2.463,1.449,4.636l10.72,27.596h0.217c2.753-6.374,10.938-26.22,12.459-30.276c0.289-0.796,0.579-1.738,0.579-2.245
		c0-0.652-0.29-0.869-0.869-1.086c-0.725-0.217-1.738-0.29-2.535-0.29c-0.579,0-1.087-0.217-1.087-0.652s0.58-0.58,1.812-0.58
		c3.187,0,6.012,0.145,6.809,0.145c1.086,0,4.056-0.145,6.012-0.145c0.797,0,1.304,0.145,1.304,0.58s-0.362,0.652-1.015,0.652
		c-0.651,0-2.027-0.072-3.114,0.725c-0.797,0.579-1.666,1.521-3.332,5.432c-2.535,5.794-4.201,9.126-7.678,16.659
		c-4.056,8.981-7.025,15.718-8.475,18.833c-1.593,3.549-2.173,4.491-3.042,4.491s-1.376-0.797-2.607-3.694L420.382,38.676z"/>
	<path fill="#00245D" d="M479.774,63.23c0-3.332-0.58-4.636-1.449-6.446c-0.435-0.942-9.126-14.486-11.371-17.746
		c-1.594-2.245-2.897-3.694-4.129-4.346c-0.797-0.435-1.884-0.797-2.68-0.797c-0.508,0-0.942-0.217-0.942-0.652
		s0.435-0.58,1.231-0.58c1.087,0,5.867,0.145,7.968,0.145c1.376,0,4.346-0.145,7.243-0.145c0.579,0,0.941,0.145,0.941,0.58
		c0,0.507-0.435,0.507-1.448,0.797c-0.507,0.145-0.869,0.435-0.869,0.941c0,0.507,0.289,1.231,0.797,2.101
		c1.158,1.883,9.488,16.297,10.574,18.036c0.797-1.449,8.547-14.631,9.489-16.515c0.651-1.376,0.941-2.462,0.941-3.259
		c0-0.58-0.29-1.159-1.376-1.376c-0.58-0.145-1.159-0.217-1.159-0.725c0-0.435,0.362-0.58,1.086-0.58
		c2.101,0,4.347,0.145,6.229,0.145c1.376,0,5.577-0.145,6.809-0.145c0.725,0,1.159,0.145,1.159,0.507
		c0,0.435-0.507,0.724-1.231,0.724c-0.652,0-1.811,0.29-2.753,0.725c-1.376,0.652-1.955,1.231-3.331,2.897
		c-2.101,2.463-11.228,17.094-12.386,19.702c-0.942,2.245-0.797,4.128-0.797,6.157v4.925c0,1.014,0,3.549,0.145,6.157
		c0.145,1.811,0.725,2.969,2.607,3.259c0.941,0.145,2.318,0.217,3.188,0.217c0.724,0,1.086,0.362,1.086,0.652
		c0,0.435-0.507,0.652-1.376,0.652c-3.983,0-8.257-0.217-9.996-0.217c-1.593,0-5.866,0.217-8.257,0.217
		c-0.869,0-1.376-0.145-1.376-0.652c0-0.29,0.29-0.652,1.014-0.652c0.869,0,1.666-0.072,2.246-0.217
		c1.304-0.29,1.811-1.449,1.955-3.259c0.218-2.608,0.218-5.143,0.218-6.157V63.23z"/>
</g>
</svg>
