<?xml version="1.0" encoding="utf-8"?>
<!-- Generator: Adobe Illustrator 27.3.1, SVG Export Plug-In . SVG Version: 6.00 Build 0)  -->
<svg version="1.1" id="Layer_1" xmlns="http://www.w3.org/2000/svg" xmlns:xlink="http://www.w3.org/1999/xlink" x="0px" y="0px"
	 viewBox="0 0 510 90" style="enable-background:new 0 0 510 90;" xml:space="preserve">
<style type="text/css">
	.st0{fill:#808284;stroke:#808284;stroke-width:0.25;stroke-linecap:round;stroke-linejoin:round;}
	.st1{fill:#606163;stroke:#00245D;stroke-width:0.25;}
	.st2{fill:#231F20;}
</style>
<g>
	<path class="st0" d="M242.4,33.3c0,0-11.7-15.6-18.2-5.2c0,0-3.9,3.5-14.1-2.1l5.2-14c10.2,5.6,16.4-3.4,16.4-3.4
		c6.5-10.4,18.2,5.2,18.2,5.2S238.8,9.7,242.4,33.3z"/>
	<path class="st1" d="M237,47.1l13.5-35.4c0,0-1.5-2.4,0.4-3.3c0,0,1.6-0.5,2.6,0.7c0,0,1.3,1-0.6,2.9L237,47.1z"/>
	<path class="st2" d="M13.1,74.3c0.1,5.6,1.1,7.5,2.5,8c1.2,0.4,2.6,0.5,3.8,0.5c0.8,0,1.2,0.1,1.2,0.6c0,0.6-0.7,0.7-1.7,0.7
		c-4.7,0-7.6-0.2-9-0.2c-0.7,0-4.1,0.2-7.8,0.2c-0.9,0-1.6-0.1-1.6-0.7c0-0.4,0.4-0.6,1.2-0.6c0.9,0,2.2-0.1,3.3-0.4
		c1.9-0.6,2.2-2.7,2.2-9l0.7-42.9c0-1.4,0.2-2.5,0.9-2.5c0.8,0,1.4,0.9,2.7,2.2c0.9,0.9,11.9,12.7,22.5,23.2
		c4.9,4.9,14.7,15.4,15.9,16.5h0.4l-0.7-32.5c-0.1-4.4-0.7-5.8-2.5-6.5c-1.1-0.4-2.8-0.4-3.8-0.4c-0.9,0-1.2-0.2-1.2-0.7
		c0-0.6,0.8-0.7,1.9-0.7c3.8,0,7.2,0.2,8.8,0.2c0.8,0,3.5-0.2,7.1-0.2c0.9,0,1.7,0.1,1.7,0.7c0,0.4-0.4,0.7-1.3,0.7
		c-0.7,0-1.3,0-2.2,0.2c-2,0.6-2.6,2.1-2.7,6.2l-0.8,45.7c0,1.6-0.3,2.2-0.9,2.2c-0.8,0-1.7-0.8-2.5-1.6
		c-4.6-4.3-13.8-13.8-21.4-21.3c-7.9-7.6-16-16.7-17.3-18h-0.2L13.1,74.3z"/>
	<path class="st2" d="M68.5,60.8c0-10.5,7.4-24.1,26.7-24.1c16.1,0,26.1,8.9,26.1,23S111,84.9,94.6,84.9
		C76.1,84.9,68.5,71.7,68.5,60.8z M111.8,62c0-13.6-8.2-22-18.5-22c-7.1,0-15.4,3.8-15.4,19c0,12.7,7.2,22.7,19.3,22.7
		C101.7,81.6,111.8,79.5,111.8,62z"/>
	<path class="st2" d="M138.1,68.6c-0.4,0-0.4,0.1-0.6,0.4l-3.4,8.3c-0.7,1.5-0.9,3-0.9,3.8c0,1.1,0.6,1.7,2.5,1.7h0.9
		c0.8,0,0.9,0.3,0.9,0.7c0,0.5-0.4,0.7-1,0.7c-2.1,0-5.1-0.2-7.1-0.2c-0.7,0-4.1,0.2-7.4,0.2c-0.8,0-1.2-0.1-1.2-0.7
		c0-0.4,0.2-0.7,0.7-0.7c0.6,0,1.3-0.1,1.9-0.1c2.9-0.4,4-2.3,5.3-5.4l16.7-38.8c0.7-1.7,1.2-2.5,1.9-2.5c0.9,0,1.2,0.6,1.9,2
		c1.5,3.4,12.2,28.6,16.2,38c2.5,5.6,4.3,6.4,5.4,6.6c0.9,0.1,1.7,0.2,2.4,0.2c0.6,0,0.9,0.2,0.9,0.7s-0.4,0.7-2.8,0.7
		c-2.2,0-6.9,0-12.2-0.1c-1.2-0.1-1.9-0.1-1.9-0.5s0.1-0.6,0.8-0.7c0.4-0.1,0.9-0.7,0.6-1.4l-4.9-12.4c-0.1-0.4-0.4-0.4-0.7-0.4
		C153.1,68.6,138.1,68.6,138.1,68.6z M151.8,65.2c0.3,0,0.4-0.1,0.3-0.4L146,49.2c-0.1-0.2-0.1-0.6-0.3-0.6s-0.3,0.4-0.4,0.6
		l-6.2,15.6c-0.1,0.3,0,0.4,0.2,0.4C139.4,65.2,151.8,65.2,151.8,65.2z"/>
	<path class="st2" d="M214.2,57.6c0.1,0,0.4-0.1,0.4-0.4v-1.3c0-9.3-0.1-11.6-0.1-13.5c-0.1-2.1-0.7-2.8-2.8-3.3
		c-0.5-0.1-1.6-0.2-2.5-0.2c-0.7,0-1.1-0.2-1.1-0.7s0.4-0.6,1.4-0.6c3.4,0,7.9,0.1,9.6,0.1c1.5,0,5.7-0.1,8.2-0.1
		c0.9,0,1.4,0.1,1.4,0.6s-0.4,0.7-1.2,0.7c-0.5,0-1.1,0.1-1.9,0.2c-1.7,0.3-2.2,1.2-2.3,3.3c-0.1,2-0.1,3.7-0.1,13v10.8
		c0,5.7,0,10.5,0.3,13.2c0.2,1.7,0.6,2.9,2.5,3.2c0.9,0.1,2.2,0.2,3.3,0.2c0.7,0,1,0.4,1,0.7c0,0.4-0.5,0.7-1.3,0.7
		c-4.1,0-8.3-0.2-10.1-0.2c-1.4,0-5.9,0.2-8.4,0.2c-0.9,0-1.4-0.2-1.4-0.7c0-0.3,0.3-0.7,1-0.7c1,0,1.7-0.1,2.3-0.2
		c1.3-0.3,1.7-1.4,1.9-3.3c0.3-2.6,0.3-7.3,0.3-13v-4.7c0-0.2-0.2-0.4-0.4-0.4h-24c-0.2,0-0.4,0.1-0.4,0.4v4.7
		c0,5.6,0.1,10.4,0.4,13c0.2,1.7,0.6,2.9,2.5,3.2c0.9,0.1,2.3,0.2,3.3,0.2c0.7,0,1,0.4,1,0.7c0,0.4-0.5,0.7-1.3,0.7
		c-4.1,0-8.5-0.2-10.4-0.2c-1.4,0-5.6,0.2-8.2,0.2c-0.8,0-1.2-0.2-1.2-0.7c0-0.3,0.2-0.7,1-0.7c0.9,0,1.7-0.1,2.2-0.2
		c1.3-0.3,1.7-1.4,1.9-3.3c0.3-2.6,0.3-7.5,0.3-13.1V55.4c0-9.3,0-11.1-0.1-13c-0.1-2.1-0.7-2.8-2.8-3.3c-0.5-0.1-1.6-0.2-2.5-0.2
		c-0.7,0-1.1-0.2-1.1-0.7s0.5-0.6,1.4-0.6c3.4,0,7.6,0.1,9.3,0.1c1.5,0,5.9-0.1,8.5-0.1c0.9,0,1.3,0.1,1.3,0.6s-0.4,0.7-1.2,0.7
		c-0.5,0-1.1,0.1-1.8,0.2c-1.7,0.3-2.2,1.2-2.4,3.3c-0.1,2-0.1,4.2-0.1,13.5v1.3c0,0.4,0.2,0.4,0.4,0.4H214.2L214.2,57.6z"/>
	<path class="st2" d="M252.6,83.3c-1-0.4-1.2-0.7-1.2-2.1c0-3.3,0.3-7.2,0.4-8.2c0-0.9,0.3-1.6,0.8-1.6c0.6,0,0.7,0.6,0.7,1
		c0,0.8,0.2,2.1,0.6,3.2c1.4,4.6,6.2,6.1,10.1,6.1c5.5,0,8.8-3.5,8.8-7.8c0-2.7-0.7-5.4-6.3-8.7l-3.7-2.2c-7.5-4.4-10-8.5-10-14
		c0-7.5,7.2-12.4,16.1-12.4c4.1,0,7.4,0.6,9.1,1c0.6,0.1,0.9,0.4,0.9,0.8c0,0.8-0.2,2.5-0.2,7.4c0,1.3-0.3,2-0.8,2
		c-0.4,0-0.7-0.4-0.7-1.1c0-0.6-0.3-2.5-1.7-4.1c-0.9-1.2-3-2.9-7.1-2.9c-4.6,0-8.7,2.4-8.7,6.6c0,2.8,1,4.9,6.7,8.1l2.6,1.4
		c8.4,4.6,11,9.3,11,14.9c0,4.6-1.7,8.3-6.4,11.5c-3,2.2-7.2,2.5-10.6,2.5C259.3,84.9,255.4,84.6,252.6,83.3z"/>
	<path class="st2" d="M322.5,74.3c0.1,5.6,1.1,7.5,2.5,8c1.2,0.4,2.6,0.5,3.8,0.5c0.8,0,1.2,0.1,1.2,0.6c0,0.6-0.7,0.7-1.7,0.7
		c-4.7,0-7.6-0.2-9-0.2c-0.7,0-4.1,0.2-7.8,0.2c-0.9,0-1.6-0.1-1.6-0.7c0-0.4,0.4-0.6,1.2-0.6c0.9,0,2.2-0.1,3.3-0.4
		c1.9-0.6,2.2-2.7,2.2-9l0.7-42.9c0-1.4,0.2-2.5,0.9-2.5c0.8,0,1.4,0.9,2.7,2.2c0.9,0.9,11.9,12.7,22.5,23.2
		c4.9,4.9,14.7,15.4,15.9,16.5h0.4L359,37.4c-0.1-4.4-0.7-5.8-2.5-6.5c-1.1-0.4-2.8-0.4-3.8-0.4c-0.9,0-1.2-0.2-1.2-0.7
		c0-0.6,0.8-0.7,1.9-0.7c3.8,0,7.2,0.2,8.8,0.2c0.8,0,3.5-0.2,7.1-0.2c0.9,0,1.7,0.1,1.7,0.7c0,0.4-0.4,0.7-1.3,0.7
		c-0.7,0-1.3,0-2.2,0.2c-2,0.6-2.6,2.1-2.7,6.2L364,82.6c0,1.6-0.3,2.2-0.9,2.2c-0.8,0-1.7-0.8-2.5-1.6
		c-4.6-4.3-13.8-13.8-21.4-21.3c-7.9-7.8-15.9-16.9-17.2-18.3h-0.2L322.5,74.3z"/>
	<path class="st2" d="M388.3,68.6c-0.4,0-0.4,0.1-0.6,0.4l-3.4,8.3c-0.7,1.5-0.9,3-0.9,3.8c0,1.1,0.6,1.7,2.5,1.7h0.9
		c0.8,0,0.9,0.3,0.9,0.7c0,0.5-0.4,0.7-1,0.7c-2.1,0-5.1-0.2-7.1-0.2c-0.7,0-4.1,0.2-7.4,0.2c-0.8,0-1.2-0.1-1.2-0.7
		c0-0.4,0.2-0.7,0.7-0.7c0.6,0,1.3-0.1,1.9-0.1c2.9-0.4,4-2.3,5.3-5.4l16.7-38.8c0.7-1.7,1.2-2.5,1.9-2.5c0.9,0,1.2,0.6,1.9,2
		c1.5,3.4,12.2,28.6,16.2,38c2.5,5.6,4.3,6.4,5.4,6.6c0.9,0.1,1.7,0.2,2.4,0.2c0.6,0,0.9,0.2,0.9,0.7s-0.4,0.7-2.8,0.7
		c-2.2,0-6.9,0-12.2-0.1c-1.2-0.1-1.9-0.1-1.9-0.5s0.1-0.6,0.8-0.7c0.4-0.1,0.9-0.7,0.6-1.4L404,69.1c-0.1-0.4-0.4-0.4-0.7-0.4
		C403.3,68.6,388.3,68.6,388.3,68.6z M401.9,65.2c0.3,0,0.4-0.1,0.3-0.4l-6-15.6c-0.1-0.2-0.1-0.6-0.3-0.6c-0.2,0-0.3,0.4-0.4,0.6
		l-6.2,15.6c-0.1,0.3,0,0.4,0.2,0.4C389.6,65.2,401.9,65.2,401.9,65.2z"/>
	<path class="st2" d="M421,43.6c-1.4-3.4-2.4-4-4.7-4.6c-0.9-0.2-2-0.2-2.5-0.2c-0.6,0-0.7-0.3-0.7-0.7c0-0.5,0.7-0.6,1.6-0.6
		c3.4,0,7,0.1,9.3,0.1c1.6,0,4.9-0.1,8.1-0.1c0.8,0,1.5,0.1,1.5,0.6s-0.4,0.7-1,0.7c-1,0-2,0.1-2.5,0.4c-0.4,0.3-0.7,0.7-0.7,1.2
		c0,0.8,0.6,2.5,1.4,4.6l10.7,27.6h0.2c2.8-6.4,10.9-26.2,12.5-30.3c0.3-0.8,0.6-1.7,0.6-2.2c0-0.7-0.3-0.9-0.9-1.1
		c-0.7-0.2-1.7-0.3-2.5-0.3c-0.6,0-1.1-0.2-1.1-0.7s0.6-0.6,1.8-0.6c3.2,0,6,0.1,6.8,0.1c1.1,0,4.1-0.1,6-0.1c0.8,0,1.3,0.1,1.3,0.6
		s-0.4,0.7-1,0.7c-0.7,0-2-0.1-3.1,0.7c-0.8,0.6-1.7,1.5-3.3,5.4c-2.5,5.8-4.2,9.1-7.7,16.7c-4.1,9-7,15.7-8.5,18.8
		c-1.6,3.5-2.2,4.5-3,4.5c-0.9,0-1.4-0.8-2.6-3.7L421,43.6z"/>
	<path class="st2" d="M480.4,68.1c0-3.3-0.6-4.6-1.4-6.4c-0.4-0.9-9.1-14.5-11.4-17.7c-1.6-2.2-2.9-3.7-4.1-4.3
		c-0.8-0.4-1.9-0.8-2.7-0.8c-0.5,0-0.9-0.2-0.9-0.7s0.4-0.6,1.2-0.6c1.1,0,5.9,0.1,8,0.1c1.4,0,4.3-0.1,7.2-0.1
		c0.6,0,0.9,0.1,0.9,0.6s-0.4,0.5-1.4,0.8c-0.5,0.1-0.9,0.4-0.9,0.9s0.3,1.2,0.8,2.1c1.2,1.9,9.5,16.3,10.6,18
		c0.8-1.4,8.5-14.6,9.5-16.5c0.7-1.4,0.9-2.5,0.9-3.3c0-0.6-0.3-1.2-1.4-1.4c-0.6-0.1-1.2-0.2-1.2-0.7c0-0.4,0.4-0.6,1.1-0.6
		c2.1,0,4.3,0.1,6.2,0.1c1.4,0,5.6-0.1,6.8-0.1c0.7,0,1.2,0.1,1.2,0.5s-0.5,0.7-1.2,0.7s-1.8,0.3-2.8,0.7c-1.4,0.7-2,1.2-3.3,2.9
		c-2.1,2.5-11.2,17.1-12.4,19.7c-0.9,2.2-0.8,4.1-0.8,6.2v5c0,1,0,3.5,0.1,6.2c0.1,1.8,0.7,3,2.6,3.3c0.9,0.1,2.3,0.2,3.2,0.2
		c0.7,0,1.1,0.4,1.1,0.7c0,0.4-0.5,0.7-1.4,0.7c-4,0-8.3-0.2-10-0.2c-1.6,0-5.9,0.2-8.3,0.2c-0.9,0-1.4-0.1-1.4-0.7
		c0-0.3,0.3-0.7,1-0.7c0.9,0,1.7-0.1,2.2-0.2c1.3-0.3,1.8-1.4,2-3.3c0.2-2.6,0.2-5.1,0.2-6.2v-5.1H480.4z"/>
</g>
</svg>
