<svg xmlns="http://www.w3.org/2000/svg" xmlns:xlink="http://www.w3.org/1999/xlink" viewBox="0 0 670 170" width="670" height="170" preserveAspectRatio="xMidYMid meet" style="width: 100%; height: 100%; transform: translate3d(0px, 0px, 0px); content-visibility: visible;"><defs><clipPath id="__lottie_element_1641"><rect width="670" height="170" x="0" y="0"></rect></clipPath><symbol id="__lottie_element_1654"><g><g transform="matrix(1,0,0,1,362.1510009765625,95.7490005493164)" opacity="1" style="display: block;"><g opacity="1" transform="matrix(1,0,0,1,0,0)"><path fill="rgb(169,100,0)" fill-opacity="1" d=" M157.61199951171875,-85.53399658203125 C157.61199951171875,-85.53399658203125 -258.25,-85.53399658203125 -258.25,-85.53399658203125 C-258.25,-85.53399658203125 -258.25,64.46600341796875 -258.25,64.46600341796875 C-258.25,64.46600341796875 157.61199951171875,64.46600341796875 157.61199951171875,64.46600341796875 C157.61199951171875,64.46600341796875 157.61199951171875,-85.53399658203125 157.61199951171875,-85.53399658203125z"></path><path stroke-linecap="butt" stroke-linejoin="miter" fill-opacity="0" stroke-miterlimit="4" stroke="rgb(35,35,35)" stroke-opacity="1" stroke-width="0" d=" M157.61199951171875,-85.53399658203125 C157.61199951171875,-85.53399658203125 -258.25,-85.53399658203125 -258.25,-85.53399658203125 C-258.25,-85.53399658203125 -258.25,64.46600341796875 -258.25,64.46600341796875 C-258.25,64.46600341796875 157.61199951171875,64.46600341796875 157.61199951171875,64.46600341796875 C157.61199951171875,64.46600341796875 157.61199951171875,-85.53399658203125 157.61199951171875,-85.53399658203125z"></path></g></g></g></symbol><symbol id="__lottie_element_1660"><g><g transform="matrix(1,0,0,1,362.1510009765625,95.7490005493164)" opacity="1" style="display: block;"><g opacity="1" transform="matrix(1,0,0,1,0,0)"><path fill="url(#__lottie_element_1663)" fill-opacity="1" d=" M161.61199951171875,-85.53399658203125 C161.61199951171875,-85.53399658203125 -323.25,-85.53399658203125 -323.25,-85.53399658203125 C-337.6090087890625,-85.53399658203125 -349.25,-73.89299774169922 -349.25,-59.534000396728516 C-349.25,-59.534000396728516 -349.25,38.465999603271484 -349.25,38.465999603271484 C-349.25,52.82500076293945 -337.6090087890625,64.46600341796875 -323.25,64.46600341796875 C-323.25,64.46600341796875 161.61199951171875,64.46600341796875 161.61199951171875,64.46600341796875 C164.98300170898438,64.46600341796875 168.2989959716797,63.617000579833984 171.25599670410156,61.99800109863281 C171.25599670410156,61.99800109863281 290.3659973144531,-3.2109999656677246 290.3659973144531,-3.2109999656677246 C296.1520080566406,-6.379000186920166 296.1520080566406,-14.6899995803833 290.3659973144531,-17.857999801635742 C290.3659973144531,-17.857999801635742 171.25599670410156,-83.06700134277344 171.25599670410156,-83.06700134277344 C168.2989959716797,-84.68599700927734 164.98300170898438,-85.53399658203125 161.61199951171875,-85.53399658203125z"></path><path stroke-linecap="butt" stroke-linejoin="miter" fill-opacity="0" stroke-miterlimit="4" stroke="rgb(35,35,35)" stroke-opacity="1" stroke-width="0" d=" M161.61199951171875,-85.53399658203125 C161.61199951171875,-85.53399658203125 -323.25,-85.53399658203125 -323.25,-85.53399658203125 C-337.6090087890625,-85.53399658203125 -349.25,-73.89299774169922 -349.25,-59.534000396728516 C-349.25,-59.534000396728516 -349.25,38.465999603271484 -349.25,38.465999603271484 C-349.25,52.82500076293945 -337.6090087890625,64.46600341796875 -323.25,64.46600341796875 C-323.25,64.46600341796875 161.61199951171875,64.46600341796875 161.61199951171875,64.46600341796875 C164.98300170898438,64.46600341796875 168.2989959716797,63.617000579833984 171.25599670410156,61.99800109863281 C171.25599670410156,61.99800109863281 290.3659973144531,-3.2109999656677246 290.3659973144531,-3.2109999656677246 C296.1520080566406,-6.379000186920166 296.1520080566406,-14.6899995803833 290.3659973144531,-17.857999801635742 C290.3659973144531,-17.857999801635742 171.25599670410156,-83.06700134277344 171.25599670410156,-83.06700134277344 C168.2989959716797,-84.68599700927734 164.98300170898438,-85.53399658203125 161.61199951171875,-85.53399658203125z"></path></g></g></g></symbol><linearGradient id="__lottie_element_1663" spreadMethod="pad" gradientUnits="userSpaceOnUse" x1="10" y1="-75" x2="11" y2="52"><stop offset="0%" stop-color="rgb(253,255,80)"></stop><stop offset="1%" stop-color="rgb(253,255,77)"></stop><stop offset="2%" stop-color="rgb(253,255,74)"></stop><stop offset="3%" stop-color="rgb(238,240,37)"></stop><stop offset="4%" stop-color="rgb(222,225,0)"></stop><stop offset="45%" stop-color="rgb(222,225,0)"></stop><stop offset="85%" stop-color="rgb(222,225,0)"></stop><stop offset="87%" stop-color="rgb(199,201,0)"></stop><stop offset="88%" stop-color="rgb(176,178,0)"></stop><stop offset="94%" stop-color="rgb(166,168,0)"></stop><stop offset="100%" stop-color="rgb(156,158,0)"></stop></linearGradient><mask id="__lottie_element_1660_1" mask-type="alpha"><use xlink:href="#__lottie_element_1660"></use></mask><mask id="__lottie_element_1654_1" mask-type="alpha"><use xlink:href="#__lottie_element_1654"></use></mask></defs><g clip-path="url(#__lottie_element_1641)"><g transform="matrix(1,0,0,1,335,85)" opacity="1" style="display: block;"><g opacity="1" transform="matrix(1,0,0,1,0,0)"><path fill="rgb(255,199,126)" fill-opacity="1" d=" M-322.0989990234375,-48.84700012207031 C-322.0989990234375,-48.84700012207031 -322.0989990234375,-23.847000122070312 -322.0989990234375,-23.847000122070312 C-322.0989990234375,-38.20600128173828 -310.4580078125,-49.84700012207031 -296.0989990234375,-49.84700012207031 C-296.0989990234375,-49.84700012207031 188.76300048828125,-49.84700012207031 188.76300048828125,-49.84700012207031 C188.76300048828125,-49.84700012207031 188.76300048828125,-74.84700012207031 188.76300048828125,-74.84700012207031 C188.76300048828125,-74.84700012207031 -296.0989990234375,-74.84700012207031 -296.0989990234375,-74.84700012207031 C-310.4580078125,-74.84700012207031 -322.0989990234375,-63.20600128173828 -322.0989990234375,-48.84700012207031z"></path><path stroke-linecap="butt" stroke-linejoin="miter" fill-opacity="0" stroke-miterlimit="4" stroke="rgb(35,35,35)" stroke-opacity="1" stroke-width="0" d=" M-322.0989990234375,-48.84700012207031 C-322.0989990234375,-48.84700012207031 -322.0989990234375,-23.847000122070312 -322.0989990234375,-23.847000122070312 C-322.0989990234375,-38.20600128173828 -310.4580078125,-49.84700012207031 -296.0989990234375,-49.84700012207031 C-296.0989990234375,-49.84700012207031 188.76300048828125,-49.84700012207031 188.76300048828125,-49.84700012207031 C188.76300048828125,-49.84700012207031 188.76300048828125,-74.84700012207031 188.76300048828125,-74.84700012207031 C188.76300048828125,-74.84700012207031 -296.0989990234375,-74.84700012207031 -296.0989990234375,-74.84700012207031 C-310.4580078125,-74.84700012207031 -322.0989990234375,-63.20600128173828 -322.0989990234375,-48.84700012207031z"></path></g><g opacity="1" transform="matrix(1,0,0,1,0,0)"><path fill="rgb(130,60,0)" fill-opacity="1" d=" M-322.0989990234375,24.152999877929688 C-322.0989990234375,24.152999877929688 -322.0989990234375,49.15299987792969 -322.0989990234375,49.15299987792969 C-322.0989990234375,63.512001037597656 -310.4580078125,75.15299987792969 -296.0989990234375,75.15299987792969 C-296.0989990234375,75.15299987792969 188.76300048828125,75.15299987792969 188.76300048828125,75.15299987792969 C188.76300048828125,75.15299987792969 188.76300048828125,50.15299987792969 188.76300048828125,50.15299987792969 C188.76300048828125,50.15299987792969 -296.0989990234375,50.15299987792969 -296.0989990234375,50.15299987792969 C-310.4580078125,50.15299987792969 -322.0989990234375,38.512001037597656 -322.0989990234375,24.152999877929688z"></path><path stroke-linecap="butt" stroke-linejoin="miter" fill-opacity="0" stroke-miterlimit="4" stroke="rgb(35,35,35)" stroke-opacity="1" stroke-width="0" d=" M-322.0989990234375,24.152999877929688 C-322.0989990234375,24.152999877929688 -322.0989990234375,49.15299987792969 -322.0989990234375,49.15299987792969 C-322.0989990234375,63.512001037597656 -310.4580078125,75.15299987792969 -296.0989990234375,75.15299987792969 C-296.0989990234375,75.15299987792969 188.76300048828125,75.15299987792969 188.76300048828125,75.15299987792969 C188.76300048828125,75.15299987792969 188.76300048828125,50.15299987792969 188.76300048828125,50.15299987792969 C188.76300048828125,50.15299987792969 -296.0989990234375,50.15299987792969 -296.0989990234375,50.15299987792969 C-310.4580078125,50.15299987792969 -322.0989990234375,38.512001037597656 -322.0989990234375,24.152999877929688z"></path></g><g opacity="1" transform="matrix(1,0,0,1,0,0)"><path fill="rgb(255,133,0)" fill-opacity="1" d=" M-322.0989990234375,-23.847000122070312 C-322.0989990234375,-23.847000122070312 -322.0989990234375,24.152999877929688 -322.0989990234375,24.152999877929688 C-322.0989990234375,38.512001037597656 -310.4580078125,50.15299987792969 -296.0989990234375,50.15299987792969 C-296.0989990234375,50.15299987792969 188.76300048828125,50.15299987792969 188.76300048828125,50.15299987792969 C188.76300048828125,50.15299987792969 188.76300048828125,-49.84700012207031 188.76300048828125,-49.84700012207031 C188.76300048828125,-49.84700012207031 -296.0989990234375,-49.84700012207031 -296.0989990234375,-49.84700012207031 C-310.4580078125,-49.84700012207031 -322.0989990234375,-38.20600128173828 -322.0989990234375,-23.847000122070312z"></path><path stroke-linecap="butt" stroke-linejoin="miter" fill-opacity="0" stroke-miterlimit="4" stroke="rgb(35,35,35)" stroke-opacity="1" stroke-width="0" d=" M-322.0989990234375,-23.847000122070312 C-322.0989990234375,-23.847000122070312 -322.0989990234375,24.152999877929688 -322.0989990234375,24.152999877929688 C-322.0989990234375,38.512001037597656 -310.4580078125,50.15299987792969 -296.0989990234375,50.15299987792969 C-296.0989990234375,50.15299987792969 188.76300048828125,50.15299987792969 188.76300048828125,50.15299987792969 C188.76300048828125,50.15299987792969 188.76300048828125,-49.84700012207031 188.76300048828125,-49.84700012207031 C188.76300048828125,-49.84700012207031 -296.0989990234375,-49.84700012207031 -296.0989990234375,-49.84700012207031 C-310.4580078125,-49.84700012207031 -322.0989990234375,-38.20600128173828 -322.0989990234375,-23.847000122070312z"></path></g></g><g transform="matrix(1,0,0,1,335,85)" opacity="1" style="display: block;"><g opacity="1" transform="matrix(1,0,0,1,0,0)"><path fill="rgb(255,100,217)" fill-opacity="1" d=" M-322.0989990234375,-48.84700012207031 C-322.0989990234375,-48.84700012207031 -322.0989990234375,-23.847000122070312 -322.0989990234375,-23.847000122070312 C-322.0989990234375,-38.20600128173828 -310.4580078125,-49.84700012207031 -296.0989990234375,-49.84700012207031 C-296.0989990234375,-49.84700012207031 -241.23699951171875,-49.84700012207031 -241.23699951171875,-49.84700012207031 C-241.23699951171875,-49.84700012207031 -241.23699951171875,-74.84700012207031 -241.23699951171875,-74.84700012207031 C-241.23699951171875,-74.84700012207031 -296.0989990234375,-74.84700012207031 -296.0989990234375,-74.84700012207031 C-310.4580078125,-74.84700012207031 -322.0989990234375,-63.20600128173828 -322.0989990234375,-48.84700012207031z"></path><path stroke-linecap="butt" stroke-linejoin="miter" fill-opacity="0" stroke-miterlimit="4" stroke="rgb(35,35,35)" stroke-opacity="1" stroke-width="0" d=" M-322.0989990234375,-48.84700012207031 C-322.0989990234375,-48.84700012207031 -322.0989990234375,-23.847000122070312 -322.0989990234375,-23.847000122070312 C-322.0989990234375,-38.20600128173828 -310.4580078125,-49.84700012207031 -296.0989990234375,-49.84700012207031 C-296.0989990234375,-49.84700012207031 -241.23699951171875,-49.84700012207031 -241.23699951171875,-49.84700012207031 C-241.23699951171875,-49.84700012207031 -241.23699951171875,-74.84700012207031 -241.23699951171875,-74.84700012207031 C-241.23699951171875,-74.84700012207031 -296.0989990234375,-74.84700012207031 -296.0989990234375,-74.84700012207031 C-310.4580078125,-74.84700012207031 -322.0989990234375,-63.20600128173828 -322.0989990234375,-48.84700012207031z"></path></g><g opacity="1" transform="matrix(1,0,0,1,0,0)"><path fill="rgb(154,0,116)" fill-opacity="1" d=" M-322.0989990234375,24.152999877929688 C-322.0989990234375,24.152999877929688 -322.0989990234375,49.15299987792969 -322.0989990234375,49.15299987792969 C-322.0989990234375,63.512001037597656 -310.4580078125,75.15299987792969 -296.0989990234375,75.15299987792969 C-296.0989990234375,75.15299987792969 -241.23699951171875,75.15299987792969 -241.23699951171875,75.15299987792969 C-241.23699951171875,75.15299987792969 -241.23699951171875,50.15299987792969 -241.23699951171875,50.15299987792969 C-241.23699951171875,50.15299987792969 -296.0989990234375,50.15299987792969 -296.0989990234375,50.15299987792969 C-310.4580078125,50.15299987792969 -322.0989990234375,38.512001037597656 -322.0989990234375,24.152999877929688z"></path><path stroke-linecap="butt" stroke-linejoin="miter" fill-opacity="0" stroke-miterlimit="4" stroke="rgb(35,35,35)" stroke-opacity="1" stroke-width="0" d=" M-322.0989990234375,24.152999877929688 C-322.0989990234375,24.152999877929688 -322.0989990234375,49.15299987792969 -322.0989990234375,49.15299987792969 C-322.0989990234375,63.512001037597656 -310.4580078125,75.15299987792969 -296.0989990234375,75.15299987792969 C-296.0989990234375,75.15299987792969 -241.23699951171875,75.15299987792969 -241.23699951171875,75.15299987792969 C-241.23699951171875,75.15299987792969 -241.23699951171875,50.15299987792969 -241.23699951171875,50.15299987792969 C-241.23699951171875,50.15299987792969 -296.0989990234375,50.15299987792969 -296.0989990234375,50.15299987792969 C-310.4580078125,50.15299987792969 -322.0989990234375,38.512001037597656 -322.0989990234375,24.152999877929688z"></path></g><g opacity="1" transform="matrix(1,0,0,1,0,0)"><path fill="rgb(225,0,170)" fill-opacity="1" d=" M-322.0989990234375,-23.847000122070312 C-322.0989990234375,-23.847000122070312 -322.0989990234375,24.152999877929688 -322.0989990234375,24.152999877929688 C-322.0989990234375,38.512001037597656 -310.4580078125,50.15299987792969 -296.0989990234375,50.15299987792969 C-296.0989990234375,50.15299987792969 -241.23699951171875,50.15299987792969 -241.23699951171875,50.15299987792969 C-241.23699951171875,50.15299987792969 -241.23699951171875,-49.84700012207031 -241.23699951171875,-49.84700012207031 C-241.23699951171875,-49.84700012207031 -296.0989990234375,-49.84700012207031 -296.0989990234375,-49.84700012207031 C-310.4580078125,-49.84700012207031 -322.0989990234375,-38.20600128173828 -322.0989990234375,-23.847000122070312z"></path><path stroke-linecap="butt" stroke-linejoin="miter" fill-opacity="0" stroke-miterlimit="4" stroke="rgb(35,35,35)" stroke-opacity="1" stroke-width="0" d=" M-322.0989990234375,-23.847000122070312 C-322.0989990234375,-23.847000122070312 -322.0989990234375,24.152999877929688 -322.0989990234375,24.152999877929688 C-322.0989990234375,38.512001037597656 -310.4580078125,50.15299987792969 -296.0989990234375,50.15299987792969 C-296.0989990234375,50.15299987792969 -241.23699951171875,50.15299987792969 -241.23699951171875,50.15299987792969 C-241.23699951171875,50.15299987792969 -241.23699951171875,-49.84700012207031 -241.23699951171875,-49.84700012207031 C-241.23699951171875,-49.84700012207031 -296.0989990234375,-49.84700012207031 -296.0989990234375,-49.84700012207031 C-310.4580078125,-49.84700012207031 -322.0989990234375,-38.20600128173828 -322.0989990234375,-23.847000122070312z"></path></g></g><g transform="matrix(1,0,0,1,335,85)" opacity="1" style="display: block;"><g opacity="1" transform="matrix(1,0,0,1,0,0)"><path fill="rgb(169,100,0)" fill-opacity="1" d=" M320.2049865722656,-4.785999774932861 C319.52099609375,-3.871000051498413 318.62799072265625,-3.069999933242798 317.5169982910156,-2.4619998931884766 C317.5169982910156,-2.4619998931884766 312.62799072265625,0.21400000154972076 312.62799072265625,0.21400000154972076 C312.62799072265625,0.21400000154972076 317.5169982910156,2.8910000324249268 317.5169982910156,2.8910000324249268 C318.62799072265625,3.499000072479248 319.52099609375,4.298999786376953 320.2049865722656,5.214000225067139 C322.3999938964844,2.2799999713897705 322.3999938964844,-1.8519999980926514 320.2049865722656,-4.785999774932861z"></path></g><g opacity="1" transform="matrix(1,0,0,1,0,0)"><path fill="rgb(255,215,179)" fill-opacity="1" d=" M198.40699768066406,-62.319000244140625 C198.40699768066406,-62.319000244140625 312.62799072265625,0.21400000154972076 312.62799072265625,0.21400000154972076 C312.62799072265625,0.21400000154972076 317.5169982910156,-2.4619998931884766 317.5169982910156,-2.4619998931884766 C318.62799072265625,-3.069999933242798 319.52099609375,-3.871000051498413 320.2049865722656,-4.785999774932861 C319.52099609375,-5.701000213623047 318.62799072265625,-6.500999927520752 317.5169982910156,-7.109000205993652 C317.5169982910156,-7.109000205993652 198.40699768066406,-72.31900024414062 198.40699768066406,-72.31900024414062 C195.4499969482422,-73.93800354003906 192.13400268554688,-74.78600311279297 188.76300048828125,-74.78600311279297 C188.76300048828125,-74.78600311279297 183.9010009765625,-74.78600311279297 183.9010009765625,-74.78600311279297 C183.9010009765625,-74.78600311279297 183.9010009765625,-64.78600311279297 183.9010009765625,-64.78600311279297 C183.9010009765625,-64.78600311279297 188.76300048828125,-64.78600311279297 188.76300048828125,-64.78600311279297 C192.13400268554688,-64.78600311279297 195.4499969482422,-63.9379997253418 198.40699768066406,-62.319000244140625z"></path></g><g opacity="1" transform="matrix(1,0,0,1,0,0)"><path fill="rgb(210,130,60)" fill-opacity="1" d=" M317.5169982910156,2.8910000324249268 C317.5169982910156,2.8910000324249268 312.62799072265625,0.21400000154972076 312.62799072265625,0.21400000154972076 C312.62799072265625,0.21400000154972076 198.40699768066406,62.74700164794922 198.40699768066406,62.74700164794922 C195.4499969482422,64.36599731445312 192.13400268554688,65.21399688720703 188.76300048828125,65.21399688720703 C188.76300048828125,65.21399688720703 183.9010009765625,65.21399688720703 183.9010009765625,65.21399688720703 C183.9010009765625,65.21399688720703 183.9010009765625,75.21399688720703 183.9010009765625,75.21399688720703 C183.9010009765625,75.21399688720703 188.76300048828125,75.21399688720703 188.76300048828125,75.21399688720703 C192.13400268554688,75.21399688720703 195.4499969482422,74.36599731445312 198.40699768066406,72.74700164794922 C198.40699768066406,72.74700164794922 317.5169982910156,7.538000106811523 317.5169982910156,7.538000106811523 C318.62799072265625,6.929999828338623 319.52099609375,6.129000186920166 320.2049865722656,5.214000225067139 C319.52099609375,4.298999786376953 318.62799072265625,3.499000072479248 317.5169982910156,2.8910000324249268z"></path></g><g opacity="1" transform="matrix(1,0,0,1,0,0)"><path fill="rgb(248,205,167)" fill-opacity="1" d=" M198.40699768066406,62.74700164794922 C198.40699768066406,62.74700164794922 312.62799072265625,0.21400000154972076 312.62799072265625,0.21400000154972076 C312.62799072265625,0.21400000154972076 198.40699768066406,-62.319000244140625 198.40699768066406,-62.319000244140625 C195.4499969482422,-63.9379997253418 192.13400268554688,-64.78600311279297 188.76300048828125,-64.78600311279297 C188.76300048828125,-64.78600311279297 183.9010009765625,-64.78600311279297 183.9010009765625,-64.78600311279297 C183.9010009765625,-64.78600311279297 183.9010009765625,65.21399688720703 183.9010009765625,65.21399688720703 C183.9010009765625,65.21399688720703 188.76300048828125,65.21399688720703 188.76300048828125,65.21399688720703 C192.13400268554688,65.21399688720703 195.4499969482422,64.36599731445312 198.40699768066406,62.74700164794922z"></path></g><g opacity="1" transform="matrix(0.9827700257301331,0,0,1,0,0)"><g opacity="1" transform="matrix(1,0,0,1,0,0)"><path fill="rgb(0,36,90)" fill-opacity="1" d=" M325.7980041503906,-5 C325.114013671875,-5.914999961853027 324.2200012207031,-6.715000152587891 323.1090087890625,-7.322999954223633 C323.1090087890625,-7.322999954223633 313.65399169921875,-12.5 313.65399169921875,-12.5 C313.65399169921875,-12.5 305,-17.238000869750977 305,-17.238000869750977 C305,-17.238000869750977 305,17.238000869750977 305,17.238000869750977 C305,17.238000869750977 313.65399169921875,12.5 313.65399169921875,12.5 C313.65399169921875,12.5 323.1090087890625,7.322999954223633 323.1090087890625,7.322999954223633 C324.2200012207031,6.715000152587891 325.114013671875,5.914999961853027 325.7980041503906,5 C327.9930114746094,2.065999984741211 327.9930114746094,-2.065999984741211 325.7980041503906,-5z"></path></g></g></g><g mask="url(#__lottie_element_1654_1)" style="display: block;"><g transform="matrix(1,0,0,1,335,93.45398712158203)" opacity="1"><g opacity="1" transform="matrix(1,0,0,1,0,0)"><path stroke-linecap="butt" stroke-linejoin="miter" fill-opacity="0" stroke-miterlimit="4" stroke="rgb(35,35,35)" stroke-opacity="1" stroke-width="15" d=" M-445,58.755001068115234 C-445,58.755001068115234 418,58.755001068115234 418,58.755001068115234"></path></g><g opacity="1" transform="matrix(1,0,0,1,0,0)"><path stroke-linecap="butt" stroke-linejoin="miter" fill-opacity="0" stroke-miterlimit="4" stroke="rgb(35,35,35)" stroke-opacity="1" stroke-width="15" d=" M-445,13.041000366210938 C-445,13.041000366210938 418,13.041000366210938 418,13.041000366210938"></path></g><g opacity="1" transform="matrix(1,0,0,1,0,0)"><path stroke-linecap="butt" stroke-linejoin="miter" fill-opacity="0" stroke-miterlimit="4" stroke="rgb(35,35,35)" stroke-opacity="1" stroke-width="15" d=" M-445,150.18299865722656 C-445,150.18299865722656 418,150.18299865722656 418,150.18299865722656"></path></g><g opacity="1" transform="matrix(1,0,0,1,0,0)"><path stroke-linecap="butt" stroke-linejoin="miter" fill-opacity="0" stroke-miterlimit="4" stroke="rgb(35,35,35)" stroke-opacity="1" stroke-width="15" d=" M-445,104.46900177001953 C-445,104.46900177001953 418,104.46900177001953 418,104.46900177001953"></path></g><g opacity="1" transform="matrix(1,0,0,1,0,0)"><path stroke-linecap="butt" stroke-linejoin="miter" fill-opacity="0" stroke-miterlimit="4" stroke="rgb(35,35,35)" stroke-opacity="1" stroke-width="15" d=" M-445,-124.10199737548828 C-445,-124.10199737548828 418,-124.10199737548828 418,-124.10199737548828"></path></g><g opacity="1" transform="matrix(1,0,0,1,0,0)"><path stroke-linecap="butt" stroke-linejoin="miter" fill-opacity="0" stroke-miterlimit="4" stroke="rgb(35,35,35)" stroke-opacity="1" stroke-width="15" d=" M-445,-169.81700134277344 C-445,-169.81700134277344 418,-169.81700134277344 418,-169.81700134277344"></path></g><g opacity="1" transform="matrix(1,0,0,1,0,0)"><path stroke-linecap="butt" stroke-linejoin="miter" fill-opacity="0" stroke-miterlimit="4" stroke="rgb(35,35,35)" stroke-opacity="1" stroke-width="15" d=" M-445,-32.67399978637695 C-445,-32.67399978637695 418,-32.67399978637695 418,-32.67399978637695"></path></g><g opacity="1" transform="matrix(1,0,0,1,0,0)"><path stroke-linecap="butt" stroke-linejoin="miter" fill-opacity="0" stroke-miterlimit="4" stroke="rgb(35,35,35)" stroke-opacity="1" stroke-width="15" d=" M-445,-78.38800048828125 C-445,-78.38800048828125 418,-78.38800048828125 418,-78.38800048828125"></path></g></g></g><g mask="url(#__lottie_element_1660_1)" style="display: block;"><g transform="matrix(1,0,0,1,109.5,139.963623046875)" opacity="1"><g opacity="1" transform="matrix(1,0,0,1,0,0)"><path fill="rgb(0,36,90)" fill-opacity="1" d=" M431,103.5 C431,103.5 406,103.5 406,103.5 C406,94.6969985961914 403.0480041503906,90.8479995727539 398.5799865722656,85.0199966430664 C392.97601318359375,77.70899963378906 386,68.61100006103516 386,51.327999114990234 C386,34.04499816894531 392.97601318359375,24.947999954223633 398.5799865722656,17.636999130249023 C403.0480041503906,11.809000015258789 406,7.959000110626221 406,-0.8429999947547913 C406,-9.642999649047852 403.04901123046875,-13.493000030517578 398.58099365234375,-19.319000244140625 C392.97601318359375,-26.628999710083008 386,-35.724998474121094 386,-53.00699996948242 C386,-70.28900146484375 392.97601318359375,-79.38600158691406 398.5799865722656,-86.69599914550781 C403.04901123046875,-92.52300262451172 406,-96.37200164794922 406,-105.1729965209961 C406,-113.9729995727539 403.04901123046875,-117.822998046875 398.58099365234375,-123.64900207519531 C392.97601318359375,-130.95899963378906 386,-140.05499267578125 386,-157.33700561523438 C386,-174.61900329589844 392.97601318359375,-183.71499633789062 398.58099365234375,-191.02499389648438 C403.04901123046875,-196.8509979248047 406,-200.6999969482422 406,-209.5 C406,-209.5 431,-209.5 431,-209.5 C431,-192.21800231933594 424.02398681640625,-183.1219940185547 418.41900634765625,-175.81199645996094 C413.95098876953125,-169.98599243164062 411,-166.13600158691406 411,-157.33700561523438 C411,-148.53700256347656 413.95098876953125,-144.68800354003906 418.41900634765625,-138.86199951171875 C424.02398681640625,-131.552001953125 431,-122.45500183105469 431,-105.1729965209961 C431,-87.89099884033203 424.02398681640625,-78.79399871826172 418.4200134277344,-71.48400115966797 C413.95098876953125,-65.65699768066406 411,-61.80799865722656 411,-53.00699996948242 C411,-44.207000732421875 413.95098876953125,-40.358001708984375 418.41900634765625,-34.53200149536133 C424.02398681640625,-27.222000122070312 431,-18.125 431,-0.8429999947547913 C431,16.440000534057617 424.02398681640625,25.538000106811523 418.4200134277344,32.847999572753906 C413.9519958496094,38.67599868774414 411,42.525001525878906 411,51.327999114990234 C411,60.13100051879883 413.9519958496094,63.98099899291992 418.4200134277344,69.80899810791016 C424.02398681640625,77.12000274658203 431,86.21700286865234 431,103.5z"></path></g></g></g><g transform="matrix(1,0,0,1,382,85)" opacity="1" style="display: block;"><g opacity="1" transform="matrix(1,0,0,1,0,0)"><path fill="rgb(230,230,230)" fill-opacity="1" d=" M-296.0989990234375,-49.84700012207031 C-296.0989990234375,-49.84700012207031 -261.23699951171875,-49.84700012207031 -261.23699951171875,-49.84700012207031 C-261.23699951171875,-49.84700012207031 -261.23699951171875,-74.84700012207031 -261.23699951171875,-74.84700012207031 C-261.23699951171875,-74.84700012207031 -296.0989990234375,-74.84700012207031 -296.0989990234375,-74.84700012207031 C-296.0989990234375,-74.84700012207031 -296.0989990234375,-49.84700012207031 -296.0989990234375,-49.84700012207031z"></path><path stroke-linecap="butt" stroke-linejoin="miter" fill-opacity="0" stroke-miterlimit="4" stroke="rgb(35,35,35)" stroke-opacity="1" stroke-width="0" d=" M-296.0989990234375,-49.84700012207031 C-296.0989990234375,-49.84700012207031 -261.23699951171875,-49.84700012207031 -261.23699951171875,-49.84700012207031 C-261.23699951171875,-49.84700012207031 -261.23699951171875,-74.84700012207031 -261.23699951171875,-74.84700012207031 C-261.23699951171875,-74.84700012207031 -296.0989990234375,-74.84700012207031 -296.0989990234375,-74.84700012207031 C-296.0989990234375,-74.84700012207031 -296.0989990234375,-49.84700012207031 -296.0989990234375,-49.84700012207031z"></path></g><g opacity="1" transform="matrix(1,0,0,1,0,0)"><path fill="rgb(69,69,69)" fill-opacity="1" d=" M-296.0989990234375,75.15299987792969 C-296.0989990234375,75.15299987792969 -261.23699951171875,75.15299987792969 -261.23699951171875,75.15299987792969 C-261.23699951171875,75.15299987792969 -261.23699951171875,50.15299987792969 -261.23699951171875,50.15299987792969 C-261.23699951171875,50.15299987792969 -296.0989990234375,50.15299987792969 -296.0989990234375,50.15299987792969 C-296.0989990234375,50.15299987792969 -296.0989990234375,75.15299987792969 -296.0989990234375,75.15299987792969z"></path><path stroke-linecap="butt" stroke-linejoin="miter" fill-opacity="0" stroke-miterlimit="4" stroke="rgb(35,35,35)" stroke-opacity="1" stroke-width="0" d=" M-296.0989990234375,75.15299987792969 C-296.0989990234375,75.15299987792969 -261.23699951171875,75.15299987792969 -261.23699951171875,75.15299987792969 C-261.23699951171875,75.15299987792969 -261.23699951171875,50.15299987792969 -261.23699951171875,50.15299987792969 C-261.23699951171875,50.15299987792969 -296.0989990234375,50.15299987792969 -296.0989990234375,50.15299987792969 C-296.0989990234375,50.15299987792969 -296.0989990234375,75.15299987792969 -296.0989990234375,75.15299987792969z"></path></g><g opacity="1" transform="matrix(1,0,0,1,0,0)"><path fill="rgb(155,155,155)" fill-opacity="1" d=" M-296.0989990234375,50.15299987792969 C-296.0989990234375,50.15299987792969 -261.23699951171875,50.15299987792969 -261.23699951171875,50.15299987792969 C-261.23699951171875,50.15299987792969 -261.23699951171875,-49.84700012207031 -261.23699951171875,-49.84700012207031 C-261.23699951171875,-49.84700012207031 -296.0989990234375,-49.84700012207031 -296.0989990234375,-49.84700012207031 C-296.0989990234375,-49.84700012207031 -296.0989990234375,50.15299987792969 -296.0989990234375,50.15299987792969z"></path><path stroke-linecap="butt" stroke-linejoin="miter" fill-opacity="0" stroke-miterlimit="4" stroke="rgb(35,35,35)" stroke-opacity="1" stroke-width="0" d=" M-296.0989990234375,50.15299987792969 C-296.0989990234375,50.15299987792969 -261.23699951171875,50.15299987792969 -261.23699951171875,50.15299987792969 C-261.23699951171875,50.15299987792969 -261.23699951171875,-49.84700012207031 -261.23699951171875,-49.84700012207031 C-261.23699951171875,-49.84700012207031 -296.0989990234375,-49.84700012207031 -296.0989990234375,-49.84700012207031 C-296.0989990234375,-49.84700012207031 -296.0989990234375,50.15299987792969 -296.0989990234375,50.15299987792969z"></path></g></g></g></svg>