<?xml version="1.0" encoding="UTF-8"?>
<svg width="104px" height="30px" viewBox="0 0 104 30" version="1.1" xmlns="http://www.w3.org/2000/svg" xmlns:xlink="http://www.w3.org/1999/xlink">
    <g id="Symbols" stroke="none" stroke-width="1" fill="none" fill-rule="evenodd">
        <g id="Desktop-/-Footer" transform="translate(-141.000000, -50.000000)">
            <g id="Desktop-/-Logo-/-Black" transform="translate(141.000000, 50.000000)">
                <g id="05-Logo-_-Bic-Monochrome">
                    <path d="M13.2789463,28.1824539 C13.1398994,28.1235885 12.9606967,28.1824539 12.8911732,28.0743337 C12.8282425,27.9824316 12.8462227,27.7145339 12.7083744,27.6526652 C12.4164958,27.528327 11.7368441,27.5115083 11.7104731,27.8322647 C11.6553338,28.4365362 12.1563822,28.2947786 12.5675295,28.5164249 C13.0967469,28.7969366 13.6097821,29.2864806 14.1360027,28.9212747 C14.2588675,28.6936218 13.7835908,28.3566474 13.5390599,28.3566474 C13.5390599,28.3566474 13.3652513,28.3734661 13.2789463,28.1824539" id="Fill-42"></path>
                    <path d="M10.0326202,27.9026629 C10.0883589,27.7080467 10.2070282,27.6383693 10.4353768,27.6527853 C10.6655235,27.6726074 10.8345374,27.644376 10.9442167,27.6527853 C11.3068175,27.6810166 11.2774498,28.2234194 11.0125414,28.3567675 C10.6193743,28.5561891 10.6019934,28.4546763 10.4269861,28.5609945 C10.1243193,28.7429967 10.0679813,28.9430189 9.80427165,29.1076018 C9.54235994,29.2601713 8.89387394,29.5346763 8.75242965,29.4109388 C8.61278332,29.2866007 8.77220787,28.8216841 9.05329839,28.6294705 C9.33319026,28.4366563 9.49261471,28.4612836 9.57832035,28.4288476 C9.66462532,28.3910055 9.78629139,28.182574 9.85881155,28.182574 C9.92713635,28.182574 10.0170374,27.9597263 10.0326202,27.9026629" id="Fill-44"></path>
                    <path d="M4.80649377,13.2531657 C4.85384164,13.3000178 4.97370968,13.2735885 5.01686217,13.2267364 L5.06660741,13.1534549 C5.11635264,13.1042002 5.11635264,13.0273148 5.06421005,12.985268 L1.9830022,10.0624205 C1.93625366,10.0167698 1.80200146,10.0828431 1.75405425,10.1338999 L1.81039223,10.0666251 C1.76604105,10.1122758 1.65276576,10.2372147 1.77443182,10.3765695 L4.80649377,13.2531657 Z" id="Fill-46" fill="#FEFEFE" fill-rule="nonzero"></path>
                    <path d="M24.9883153,27.4363648 C25.9538523,27.8213926 27.1681155,28.0244182 28.6388962,28.0244182 L77.5965978,28.0244182 C77.6523365,28.0244182 77.924437,28.0292235 78.1977361,28.0346295 C80.0071441,28.0706696 82.4662368,28.1193237 86.074864,25.2271101 C91.563022,20.8284226 93.9106374,14.1279777 94.7515118,9.66982423 C94.9175294,8.79345048 95.0236123,8.01198223 95.0841455,7.3566541 C95.1434806,6.71093659 95.1590632,6.18415128 95.1428806,5.80813348 L95.1410826,5.7708921 C95.0553774,4.06379533 93.7799813,2.7429277 92.1437826,2.12123693 C91.8135462,1.99569744 91.4695249,1.89838933 91.1195103,1.83291657 C90.7653002,1.76684316 90.4068948,1.73140378 90.0526847,1.72882116 L90.0526847,1.73200445 L90.0149264,1.73200445 L38.9493453,1.73200445 L38.9493453,1.72882116 L38.7623511,1.72882116 C36.7653497,1.72599777 34.56697,1.72299444 30.7863321,5.06630924 L30.7863321,5.06871191 C29.0548384,6.59921246 27.7123163,8.26966848 26.5394076,10.2212369 C25.3479194,12.2034394 24.3278424,14.4733615 23.2568215,17.1745629 C22.43153,19.2522714 22.0071973,21.1029277 22.0071973,22.666465 C22.0071973,23.8413705 22.2493306,24.8414816 22.7443856,25.6385673 C23.2316492,26.4242403 23.976629,27.0327164 24.9883153,27.4363648 Z M28.6388962,29.42998 C26.9955055,29.42998 25.6092316,29.191515 24.4734821,28.7380111 C23.1693178,28.2178332 22.2007841,27.4201468 21.5552947,26.3797908 C20.9169975,25.3508476 20.6041419,24.1020601 20.6041419,22.666465 C20.6041419,20.9329388 21.0644352,18.9092903 21.9574519,16.6585896 C23.0602379,13.8787007 24.1108813,11.5409032 25.3389292,9.49683203 C26.5861562,7.42272745 28.0149831,5.64535261 29.8603515,4.0145406 L29.8621495,4.0163426 C34.0401499,0.321637374 36.5148255,0.325241381 38.7623511,0.328244719 L38.9493453,0.328845387 L38.9493453,0.325842048 L90.0149264,0.325842048 L90.0526847,0.325842048 L90.0550821,0.328845387 C90.5039879,0.331248058 90.9474997,0.374496106 91.3766272,0.454985535 C91.8099501,0.536075642 92.2330844,0.655608455 92.6370396,0.808778642 C94.7628992,1.61607564 96.4224726,3.38323915 96.5381448,5.70481869 L96.5399429,5.74206007 L96.5399429,5.74446274 C96.5585226,6.17333926 96.541741,6.76559733 96.4758135,7.48279423 C96.4110842,8.1909811 96.297809,9.01930142 96.1269977,9.92811126 C95.2441694,14.6091124 92.7658977,21.6555417 86.9457053,26.3203248 C82.9415136,29.5296908 80.1923402,29.47503 78.1701664,29.435386 C78.0377122,29.4329834 77.9178442,29.42998 77.5965978,29.42998 L28.6388962,29.42998 Z M34.0404496,20.1485272 L39.337418,20.1485272 C40.1081695,20.1485272 42.6697494,18.9544005 43.0215621,17.3722425 C43.3685801,15.7924872 42.5978287,15.1569811 41.7557557,15.1569811 L37.3356219,15.1569811 L34.0404496,20.1485272 Z M39.6544691,12.101386 C39.6544691,12.1001846 43.1953708,12.101386 44.0374437,12.101386 C44.878318,12.101386 47.3697751,11.3637664 47.4369013,9.91976197 C47.5094214,8.47936152 46.1417271,8.41088545 45.6490695,8.41088545 L42.1429295,8.41088545 L39.6544691,12.101386 Z M26.394667,23.3837219 L35.267299,5.63279866 L50.769832,5.63279866 C52.5247,5.63279866 54.8369543,6.68877196 54.8369543,8.8307519 C54.8369543,13.4715083 48.6313862,14.2427653 48.6313862,14.2427653 C49.5765457,14.5953571 51.2277279,16.0015194 51.0149621,17.7614749 C50.5247018,21.866436 45.7569507,23.3837219 43.7923136,23.3837219 L26.394667,23.3837219 Z M51.2445693,23.3836018 L59.4153739,9.63973084 L64.5031726,9.63973084 L59.5220565,23.3836018 L51.2445693,23.3836018 Z M63.6364069,9.25091884 C62.2261595,9.43532371 60.9579556,8.64364403 60.8069219,7.47774861 C60.6570869,6.31185317 61.6753659,5.21803782 63.0874113,5.03543493 C64.4982581,4.85223136 65.7634652,5.64691435 65.9204923,6.8086051 C66.0703274,7.97450052 65.046055,9.06591319 63.6364069,9.25091884 Z M82.3330035,13.4716885 C83.9482252,10.1337797 82.6146934,9.28743939 81.879303,8.86637148 C81.1433132,8.44590435 79.0024701,8.05907448 75.8469441,11.3633459 C72.6896201,14.668218 72.652461,19.6471502 75.07859,20.2183848 C80.7213777,21.5584739 83.7396549,16.9165161 83.7396549,16.9165161 L85.8769019,18.95398 C83.1433114,22.0480178 79.8415463,23.6680178 74.3048418,23.6680178 C68.7663393,23.6680178 64.4840537,19.9396752 66.0944807,13.8927564 C67.7126992,7.84583758 74.4432894,5.20950834 79.074391,5.20950834 C83.7012971,5.20950834 85.0024646,7.14365739 85.0024646,7.14365739 L85.7384543,5.80717242 L93.0300269,5.80717242 L85.9470248,13.4716885 L82.3330035,13.4716885 Z M100.792561,2.67583315 C101.069456,2.67583315 101.234874,2.61876975 101.234874,2.29621134 C101.234874,1.99707898 100.912429,1.97425362 100.678687,1.97425362 L100.242367,1.97425362 L100.242367,2.67583315 L100.792561,2.67583315 Z M100.242367,4.39133926 L99.62205,4.39133926 L99.62205,1.48170634 L100.706256,1.48170634 C101.455431,1.48170634 101.897745,1.6943426 101.897745,2.35988209 C101.897745,2.89747942 101.58369,3.08969299 101.198914,3.11972636 L101.939698,4.39133926 L101.204308,4.39133926 L100.534845,3.16838042 L100.242367,3.16838042 L100.242367,4.39133926 Z M100.691272,0.866022252 C99.62205,0.866022252 98.7578013,1.6943426 98.7578013,2.9401268 C98.7578013,4.18531035 99.62205,5.02023804 100.691272,5.01423136 L100.691272,5.02023804 C101.733525,5.02023804 102.618151,4.18531035 102.618151,2.9401268 C102.618151,1.6943426 101.733525,0.866022252 100.691272,0.866022252 Z M100.691272,5.64313014 C99.2570516,5.64313014 97.9786587,4.64842491 97.9786587,2.9401268 C97.9786587,1.23122804 99.2570516,0.236522806 100.691272,0.236522806 C102.118901,0.236522806 103.397893,1.23122804 103.397893,2.9401268 C103.397893,4.64842491 102.118901,5.64313014 100.691272,5.64313014 Z M7.67756214,12.681261 C7.86263623,12.0730602 8.03926084,11.63541 8.176164,11.5705762 C8.6640269,11.3471279 9.41919552,11.1837464 9.82315084,11.099653 C10.0604895,11.0485963 10.2810467,10.9038354 10.572326,11.178941 L10.5747234,11.1759377 C11.1614775,11.623435 11.419793,11.2263938 11.5019026,11.0401869 C11.4779291,10.9554928 11.5156875,10.8569834 11.6547345,10.870198 C11.6547345,10.870198 12.1042395,10.8888187 12.2576707,10.870198 C12.3805354,10.8533793 12.5747216,10.870198 12.4722345,11.099653 C12.4506582,11.1453037 12.4302806,11.1945584 12.4099031,11.2420111 C12.5687282,11.4216106 12.8582095,11.6264383 13.251976,11.395782 C13.3430757,11.1993638 13.4749305,10.9885295 13.6301596,11.0119555 C13.8710944,11.0455929 15.7716021,13.3779844 16.0293184,13.9618332 C16.3451707,14.6838354 16.2438822,18.5148921 16.1509845,18.9203426 C16.1090306,19.1251702 15.7242542,19.4200979 15.8986622,19.8597864 L15.8871117,19.8626321 C16.8430947,20.6985178 17.5158735,21.2864667 17.6054032,21.3639177 C17.8553281,21.5747519 17.997971,21.8126162 18.1891605,22.118356 C18.2988398,22.2991569 18.5787316,22.7634728 18.66204,22.8932169 C18.8358486,23.1731279 18.7494827,23.2440067 18.4121151,23.1202692 C18.2233229,23.0457864 17.9548185,22.8625829 17.5916184,22.696198 C17.3890414,22.6085005 17.1175403,22.5021825 16.8196683,22.2781335 C16.7044026,22.1888475 16.0035007,21.6472863 15.0028568,20.8734113 C14.8183313,20.8644927 14.8202241,21.3554639 14.855211,21.6798087 C14.890572,21.9957597 14.539958,22.1008765 14.1881453,22.1008765 C13.83873,22.1008765 13.8914719,22.3453482 13.8914719,22.5754037 C13.8914719,22.8060601 13.9771776,23.347862 13.8555115,23.4517775 C13.6013913,23.6752258 13.3143074,23.6127564 13.3143074,25.2291524 C13.3143074,25.4057486 13.1710651,25.9331346 13.1710651,27.4420111 C13.1710651,27.4420111 13.223807,27.6528454 13.6619247,27.9183404 C14.099443,28.1826341 14.4326761,28.4817664 14.4170933,28.8673949 C14.3937191,29.4079956 13.8740911,29.5545584 13.2423865,29.271644 C12.6112814,28.9899311 12.434476,28.7724894 12.1917433,28.7646807 C11.7877879,28.7442581 11.6511384,28.5430345 11.3664518,28.5334238 C10.8228502,28.5160044 9.15608526,30.042901 8.43567832,29.6746919 C7.92563981,29.4158042 8.80367323,28.2505095 9.71646832,27.7243248 C9.83094223,27.6576507 9.83933303,27.4804539 9.83933303,27.0389633 L9.83933303,23.9305095 C9.83933303,23.5695083 9.80397194,23.541277 9.40181468,23.5058376 C8.99606139,23.4709989 9.15608526,22.5754037 9.13870432,22.4510656 C9.11952552,22.3255261 9.11053539,22.0480178 8.6502421,22.0630345 C8.19833961,22.0834572 8.27685319,21.5014104 8.27685319,21.2929788 L8.27685319,18.973802 C8.27685319,18.8146251 8.22650865,18.6908876 7.87589458,18.5148921 C7.52587995,18.3370945 6.90796023,17.9869055 6.80787042,17.8986074 C6.69938985,17.8121113 6.54236272,17.8121113 6.61308486,17.323168 C6.64473784,17.1016441 6.86284122,15.9726361 7.13816415,14.7719999 C6.22831543,14.0610126 5.61804491,13.5789471 5.56106305,13.5210033 C5.31653226,13.2759311 5.31653226,13.5936841 5.31653226,13.5936841 C5.38305902,14.2430055 5.07140212,13.8759977 4.9293585,13.7708809 C3.04802969,12.3533059 0.570357406,10.1110145 0.0860905452,7.93900113 C0.0387426677,7.70353945 0.222140758,6.8085451 0.284472145,6.5292347 C0.370777123,6.1237842 0.6165066,6.35263848 0.860438052,6.61513014 C1.16392833,6.94482852 7.03002321,12.1107015 7.67756214,12.681261 Z M7.03615909,5.31636707 C7.03615909,2.52146162 9.29207555,0.252140158 12.0844014,0.252140158 C14.8749292,0.252140158 17.136839,2.52146162 17.136839,5.31636707 C17.136839,8.11067187 14.8749292,10.37699 12.0844014,10.37699 C9.29207555,10.37699 7.03615909,8.11067187 7.03615909,5.31636707 Z M8.68554329,4.33319466 C8.68554329,5.32009122 9.48386439,6.1237842 10.4709776,6.1237842 C11.4586903,6.1237842 12.2576107,5.32009122 12.2576107,4.33319466 C12.2576107,3.34209344 11.4586903,2.54140378 10.4709776,2.54140378 C9.48386439,2.54140378 8.68554329,3.34209344 8.68554329,4.33319466 Z M4.80649377,13.2531657 C4.85384164,13.3000178 4.97370968,13.2735885 5.01686217,13.2267364 L5.06660741,13.1534549 C5.11635264,13.1042002 5.11635264,13.0273148 5.06421005,12.985268 L1.9830022,10.0624205 C1.93625366,10.0167698 1.80200146,10.0828431 1.75405425,10.1338999 L1.81039223,10.0666251 C1.76604105,10.1122758 1.65276576,10.2372147 1.77443182,10.3765695 L4.80649377,13.2531657 Z M11.6049892,11.2203871 C11.4869192,11.424614 11.2513785,11.6732903 10.8396317,11.5267275 C10.9696886,11.7399645 11.1141296,12.0354928 11.2777494,12.4451479 C11.3814353,12.7010323 11.6960889,12.6241468 11.7877879,11.7477731 C11.7973774,11.645059 11.6900955,11.3825673 11.6049892,11.2203871 Z M13.1536842,11.6336463 C12.7910834,11.7603871 12.5147876,11.5946029 12.3379822,11.4186074 C12.2894356,11.5387408 12.2456838,11.6462603 12.207326,11.7141357 C12.1360046,11.8354705 12.3643532,12.6343581 12.5585394,12.6343581 C12.7515269,12.6343581 13.0673792,11.8600979 13.135704,11.679297 L13.1536842,11.6336463 Z M11.9105328,23.5953371 C11.7331281,23.7004539 11.6821842,23.7154705 11.666002,23.8578287 C11.6444258,23.9977842 11.6084654,24.7366051 11.6282436,25.0873949 C11.6444258,25.4387853 11.7157473,25.5649255 11.84041,25.5973615 C11.9614767,25.6352035 12.2072062,25.6526229 12.508075,25.6352035 C12.802351,25.6135795 12.946792,25.4562046 12.9605768,25.2627898 C12.976759,25.0711769 13.0318983,24.9113993 13.0492791,24.2969166 C13.0630639,23.6830345 12.8832619,23.5130456 12.6728935,23.5244583 C12.4799059,23.5328677 12.1041196,23.4788076 11.9105328,23.5953371 Z M10.2986074,23.5413971 C10.0678614,23.5413971 10.1026232,23.7155906 10.0840436,23.8579488 C10.0678614,23.9979044 10.0325003,24.7367253 10.052878,25.087515 C10.0678614,25.4389055 10.1391829,25.5650456 10.2620476,25.5974816 C10.384313,25.6353237 10.558721,25.6527431 10.8595898,25.6353237 C11.1562632,25.6136997 11.3366646,25.4917642 11.3576415,25.2995506 C11.372625,25.1043337 11.3852112,24.9115194 11.4013934,24.2970367 C11.4211716,23.6825539 11.314489,23.5594171 11.1053193,23.5245784 C10.8949509,23.4897397 10.5221613,23.5413971 10.2986074,23.5413971 Z M12.4504185,27.3923359 C12.5624951,27.3923359 12.8375922,27.2037263 12.8375922,27.0895995 L12.8681586,26.3285539 C12.883142,26.1333371 12.708734,25.9813682 12.5325281,25.9813682 L11.8235086,26.0035929 C11.7102333,26.0035929 11.5753817,26.3117353 11.5753817,26.4264627 L11.5753817,27.0199221 C11.5753817,27.2205451 11.9373832,27.3923359 12.0476619,27.3923359 L12.4504185,27.3923359 Z M11.0914146,27.3782804 C11.2022925,27.3782804 11.2939916,27.2881802 11.2939916,27.1740534 L11.2939916,26.2346096 C11.2939916,26.1252881 11.2022925,26.0345873 11.0914146,26.0345873 L10.4531173,26.03699 C10.1186855,26.0039533 10.1348677,26.316901 10.1348677,26.4286251 L10.1552452,27.1794594 C10.1534473,27.3764783 10.4830844,27.411317 10.5927636,27.411317 L11.0914146,27.3782804 Z M13.2789463,28.1824539 C13.1398994,28.1235885 12.9606967,28.1824539 12.8911732,28.0743337 C12.8282425,27.9824316 12.8462227,27.7145339 12.7083744,27.6526652 C12.4164958,27.528327 11.7368441,27.5115083 11.7104731,27.8322647 C11.6553338,28.4365362 12.1563822,28.2947786 12.5675295,28.5164249 C13.0967469,28.7969366 13.6097821,29.2864806 14.1360027,28.9212747 C14.2588675,28.6936218 13.7835907,28.3566474 13.5390599,28.3566474 C13.5390599,28.3566474 13.3652513,28.3734661 13.2789463,28.1824539 Z M10.0326202,27.9026629 C10.0170374,27.9597263 9.92713635,28.182574 9.85881155,28.182574 C9.78629139,28.182574 9.66462532,28.3910055 9.57832035,28.4288476 C9.49261471,28.4612836 9.33319026,28.4366563 9.05329839,28.6294705 C8.77220787,28.8216841 8.61278332,29.2866007 8.75242965,29.4109388 C8.89387394,29.5346763 9.54235994,29.2601713 9.80427165,29.1076018 C10.0679813,28.9430189 10.1243193,28.7429967 10.4269861,28.5609945 C10.6019934,28.4546763 10.6193743,28.5561891 11.0125414,28.3567675 C11.2774498,28.2234194 11.3068175,27.6810166 10.9442167,27.6527853 C10.8345374,27.644376 10.6655235,27.6726074 10.4353768,27.6527853 C10.2070282,27.6383693 10.0883589,27.7080467 10.0326202,27.9026629 Z M12.196418,24.2969166 C12.2467627,24.2248365 12.2695376,24.2092191 12.3558426,24.2092191 C12.508075,24.2092191 12.6728935,24.364792 12.629741,24.5449922 C12.5865885,24.7426118 12.508075,24.8783626 12.3558426,24.8783626 C12.2030108,24.8783626 12.0705566,24.7786518 12.0801461,24.5449922 C12.0843414,24.4608988 12.1562623,24.3563827 12.196418,24.2969166 Z M10.6211123,24.3379422 C10.6492814,24.3379422 10.7481725,24.242436 10.8182953,24.242436 C10.9813158,24.242436 11.0124815,24.3932035 11.0124815,24.5860178 C11.0124815,24.7806341 10.8506596,24.9536263 10.7691494,24.9452169 C10.6091256,24.9308009 10.5072377,24.789644 10.5186252,24.5950278 C10.5348074,24.3379422 10.6091256,24.3379422 10.6211123,24.3379422 Z" id="Combined-Shape" fill="#252529" fill-rule="nonzero"></path>
                </g>
            </g>
        </g>
    </g>
</svg>